<svg xmlns="http://www.w3.org/2000/svg" width="1400" height="1100" viewBox="0 0 1400 1100" fill="none">
  <g stroke="#4F6F52" stroke-width="1.4" fill="none" opacity="0.9">
    <path d="M120,540 C300,420 520,420 700,520 C880,620 1080,620 1280,500"/>
    <path d="M90,600 C290,470 540,470 720,580 C900,690 1110,690 1320,560"/>
    <path d="M70,665 C280,520 560,520 740,645 C920,770 1140,770 1360,625"/>
    <path d="M60,735 C270,575 580,575 760,715 C940,855 1170,855 1390,695"/>
    <path d="M260,470 C420,390 600,395 740,470 C880,545 1040,545 1200,460"/>
    <path d="M340,415 C470,360 610,365 720,420 C830,475 970,475 1100,415"/>
    <path d="M420,372 C520,340 620,345 700,385 C780,425 880,425 980,378"/>
    <path d="M500,345 C560,330 640,332 690,360"/>
  </g>
</svg>
