<?xml version="1.0" encoding="UTF-8" standalone="no"?>
<!-- Created with Inkscape (http://www.inkscape.org/) -->

<svg
   xmlns:dc="http://purl.org/dc/elements/1.1/"
   xmlns:cc="http://creativecommons.org/ns#"
   xmlns:rdf="http://www.w3.org/1999/02/22-rdf-syntax-ns#"
   xmlns:svg="http://www.w3.org/2000/svg"
   xmlns="http://www.w3.org/2000/svg"
   version="1.0"
   width="420.99771"
   height="90.905998"
   viewBox="0 0 336.79817 72.724799"
   id="svg2">
  <defs
     id="defs24" />
  <metadata
     id="metadata4">
    <rdf:RDF>
      <cc:Work
         rdf:about="">
        <dc:format>image/svg+xml</dc:format>
        <dc:type
           rdf:resource="http://purl.org/dc/dcmitype/StillImage" />
        <dc:title></dc:title>
      </cc:Work>
    </rdf:RDF>
  </metadata>
  <g
     transform="matrix(0.12817098,0,0,0.12817098,7.9386775,-0.84949488)"
     id="g3801"
     style="fill:#75b709;fill-opacity:1;stroke:none">
    <g
       transform="matrix(0.1,0,0,-0.1,0,595)"
       id="g6"
       style="fill:#75b709;fill-opacity:1;stroke:none">
      <path
         d="m 2665,5114 c -16,-2 -73,-9 -125,-15 C 1848,5020 1231,4656 872,4115 551,3632 434,3021 545,2415 726,1432 1501,732 2551,604 c 159,-20 492,-22 653,-5 475,51 837,195 1172,467 102,83 252,228 327,319 250,300 162,758 -181,938 -187,99 -379,100 -572,6 -70,-35 -104,-61 -205,-159 -208,-202 -369,-303 -571,-357 -89,-24 -117,-26 -279,-27 -215,-1 -300,17 -460,94 -216,105 -367,283 -449,530 -52,155 -69,269 -69,450 0,223 36,395 115,555 163,328 458,500 853,498 330,-2 624,-155 834,-434 235,-313 678,-346 951,-70 132,132 185,263 184,451 -2,212 -62,327 -315,594 -295,311 -641,513 -1032,600 -203,46 -308,57 -567,61 -135,2 -258,1 -275,-1 z"
         id="path10"
         style="fill:#75b709;fill-opacity:1;stroke:none" />
      <path
         d="M 11580,5109 C 10557,5003 9759,4347 9525,3421 c -80,-318 -92,-672 -35,-989 140,-766 644,-1371 1389,-1667 613,-243 1374,-239 1980,11 731,302 1224,910 1355,1669 55,315 40,670 -40,989 -68,269 -203,549 -375,778 -86,115 -314,340 -434,429 -356,264 -776,421 -1254,469 -121,12 -409,11 -531,-1 z m 495,-1194 c 391,-75 660,-368 739,-806 47,-262 18,-571 -75,-791 -98,-230 -272,-407 -486,-495 -128,-52 -217,-67 -398,-67 -146,0 -183,3 -260,23 -386,100 -634,387 -711,824 -22,123 -22,361 0,486 88,490 388,787 851,841 86,10 246,3 340,-15 z"
         id="path12"
         style="fill:#75b709;fill-opacity:1;stroke:none" />
      <path
         d="m 17050,5105 c -569,-71 -1035,-282 -1403,-635 -545,-522 -774,-1300 -616,-2093 98,-492 355,-930 731,-1244 175,-146 422,-290 643,-376 338,-131 756,-193 1140,-167 524,34 884,158 1250,429 122,90 379,344 430,424 104,166 128,364 65,544 -90,256 -350,428 -620,409 -178,-12 -267,-56 -439,-220 -260,-247 -433,-344 -684,-382 -202,-31 -444,-3 -611,71 -271,120 -459,385 -522,735 -21,117 -24,381 -5,495 66,404 310,691 665,784 418,110 845,-37 1106,-380 79,-103 147,-162 244,-209 185,-92 377,-92 561,-1 217,108 346,314 348,556 1,166 -46,291 -160,431 -336,411 -690,651 -1131,765 -204,53 -349,70 -627,74 -178,3 -283,0 -365,-10 z"
         id="path14"
         style="fill:#75b709;fill-opacity:1;stroke:none" />
      <path
         d="m 21570,5113 c -320,-30 -537,-84 -746,-184 -371,-177 -591,-449 -685,-849 -26,-109 -37,-423 -20,-553 66,-498 368,-854 901,-1065 127,-50 294,-99 575,-167 601,-145 678,-173 725,-265 27,-52 27,-147 1,-198 -56,-109 -177,-150 -473,-159 -413,-13 -671,68 -1036,328 -137,98 -199,126 -317,141 -245,33 -492,-125 -578,-370 -30,-86 -30,-254 1,-344 22,-62 76,-155 119,-203 72,-81 310,-254 468,-340 453,-247 1082,-348 1730,-279 707,76 1156,383 1318,899 51,163 77,337 77,522 0,359 -112,637 -348,865 -251,242 -577,389 -1135,514 -504,112 -611,143 -705,203 -81,53 -106,100 -107,197 0,60 4,76 28,112 49,75 135,113 297,133 328,40 676,-73 980,-318 128,-103 231,-143 370,-143 179,0 331,79 436,226 115,161 131,358 45,539 -43,91 -110,169 -241,280 -324,275 -703,426 -1189,475 -94,9 -407,12 -491,3 z"
         id="path16"
         style="fill:#75b709;fill-opacity:1;stroke:none" />
      <path
         d="m 6197,5050 c -246,-39 -437,-181 -543,-404 -68,-143 -65,-42 -62,-1849 l 3,-1632 30,-85 c 75,-215 250,-381 475,-452 95,-29 269,-32 370,-5 194,51 369,195 455,372 69,143 68,126 75,800 6,566 8,618 28,729 27,143 45,214 79,309 140,389 416,647 776,723 100,21 188,17 328,-13 172,-36 353,-38 454,-5 107,36 201,96 290,186 136,138 199,292 199,486 -1,127 -19,205 -74,315 -77,154 -172,245 -345,331 -172,85 -232,98 -465,98 -223,0 -330,-15 -502,-70 -252,-81 -505,-230 -700,-412 -36,-34 -68,-62 -72,-62 -3,0 -6,14 -6,31 0,90 -79,269 -162,367 -91,107 -225,191 -360,226 -76,19 -200,27 -271,16 z"
         id="path18"
         style="fill:#75b709;fill-opacity:1;stroke:none" />
    </g>
    <g
       transform="scale(1.00498,0.99504468)"
       id="text3792"
       style="font-size:135.01913452px;font-style:normal;font-weight:normal;line-height:125%;letter-spacing:0px;word-spacing:0px;fill:#75b709;fill-opacity:1;stroke:none;font-family:Sans">
      <path
         d="m 2385.709,107.97507 1.9778,0 0,-10.812077 c 0,-2.900718 0.077,-5.175208 0.2307,-6.823477 0.1539,-1.648093 0.5824,-3.065529 1.2856,-4.252311 0.7032,-1.23055 1.7141,-2.230447 3.0327,-2.999693 1.3185,-0.769056 2.7909,-1.153632 4.4171,-1.153728 2.2855,9.6e-5 4.3512,0.85715 6.1972,2.571165 1.2306,1.142833 2.0107,2.538293 2.3404,4.186385 0.3296,1.64827 0.4944,3.988687 0.4945,7.021258 l 0,12.262478 6.5927,0 c 2.5491,7e-5 4.494,0.60441 5.8346,1.813 1.3404,1.20874 2.0107,2.75803 2.0107,4.64788 0,2.41739 -0.956,4.10953 -2.8678,5.0764 -1.9119,0.96699 -4.6479,1.45046 -8.208,1.4504 l -3.3622,0 0,33.09551 c -10e-5,2.81292 0.099,4.97753 0.2966,6.49384 0.1978,1.51635 0.7252,2.74699 1.5823,3.69193 0.857,0.94497 2.2525,1.41745 4.1864,1.41744 1.0548,1e-5 2.4832,-0.18678 4.2852,-0.56038 1.802,-0.37358 3.2085,-0.56037 4.2194,-0.56038 1.4503,1e-5 2.7579,0.58237 3.9227,1.74707 1.1646,1.16473 1.747,2.60414 1.747,4.31824 0,2.9008 -1.5823,5.12036 -4.7467,6.65866 -3.1646,1.5383 -7.7136,2.30745 -13.647,2.30745 -5.6258,0 -9.8891,-0.94496 -12.7899,-2.83487 -2.9008,-1.88991 -4.8017,-4.50503 -5.7027,-7.84535 -0.901,-3.34031 -1.3515,-7.80138 -1.3515,-13.38325 l 0,-34.54591 -2.3734,0 c -2.5931,6e-5 -4.571,-0.61526 -5.9334,-1.84596 -1.3625,-1.23059 -2.0438,-2.79086 -2.0438,-4.68084 0,-1.88985 0.7142,-3.43914 2.1426,-4.64788 1.4285,-1.20859 3.5052,-1.81293 6.2302,-1.813 z"
         id="path3797"
         style="fill:#75b709;fill-opacity:1;stroke:none;font-family:Arial Rounded MT Bold;-inkscape-font-specification:Arial Rounded MT Bold" />
      <path
         d="m 2492.3134,144.30102 0,23.93162 c 0,3.77983 -0.8571,6.61471 -2.5711,8.50462 -1.7142,1.88991 -3.9777,2.83487 -6.7905,2.83487 -2.7251,0 -4.9337,-0.94496 -6.6257,-2.83487 -1.6922,-1.88991 -2.5383,-4.72479 -2.5382,-8.50462 l 0,-28.67839 c -10e-5,-4.52696 -0.1539,-8.04308 -0.4615,-10.54837 -0.3077,-2.50518 -1.1428,-4.55991 -2.5053,-6.1642 -1.3625,-1.60417 -3.5161,-2.40629 -6.4608,-2.40635 -5.8896,6e-5 -9.7683,2.02183 -11.6362,6.06532 -1.868,4.04359 -2.8019,9.84518 -2.8019,17.40481 l 0,24.32718 c 0,3.73588 -0.8461,6.55977 -2.5382,8.47165 -1.6922,1.9119 -3.9227,2.86784 -6.6916,2.86784 -2.7251,0 -4.9556,-0.95594 -6.6917,-2.86784 -1.7361,-1.91188 -2.6041,-4.73577 -2.6041,-8.47165 l 0,-51.48924 c 0,-3.3842 0.7801,-5.95536 2.3404,-7.71349 1.5603,-1.75799 3.615,-2.63702 6.1642,-2.63709 2.4613,7e-5 4.516,0.82416 6.1642,2.47227 1.6482,1.64825 2.4723,3.92274 2.4723,6.82348 l 0,1.71411 c 3.1205,-3.73582 6.4608,-6.48279 10.021,-8.24092 3.56,-1.75799 7.5156,-2.63702 11.8669,-2.63709 4.5269,7e-5 8.4166,0.90108 11.6691,2.70302 3.2524,1.80208 5.9334,4.52707 8.0431,8.17499 3.0326,-3.69187 6.285,-6.42785 9.7573,-8.20795 3.4721,-1.77997 7.3178,-2.66999 11.5373,-2.67006 4.9224,7e-5 9.1638,0.96701 12.7239,2.9008 3.56,1.93394 6.2191,4.70288 7.9772,8.30684 1.5382,3.25248 2.3074,8.37282 2.3075,15.36107 l 0,35.13926 c -10e-5,3.77983 -0.8572,6.61471 -2.5712,8.50462 -1.7142,1.88991 -3.9777,2.83487 -6.7905,2.83487 -2.7251,0 -4.9556,-0.95594 -6.6916,-2.86784 -1.7362,-1.91188 -2.6042,-4.73577 -2.6041,-8.47165 l 0,-30.26064 c -1e-4,-3.86769 -0.1649,-6.96627 -0.4945,-9.29575 -0.3297,-2.32938 -1.2197,-4.28522 -2.67,-5.86753 -1.4505,-1.5822 -3.6481,-2.37333 -6.5928,-2.37339 -2.3734,6e-5 -4.626,0.70329 -6.7575,2.10968 -2.1318,1.4065 -3.7909,3.29642 -4.9775,5.66975 -1.3187,3.0327 -1.9779,8.39478 -1.9779,16.08626 z"
         id="path3799"
         style="fill:#75b709;fill-opacity:1;stroke:none;font-family:Arial Rounded MT Bold;-inkscape-font-specification:Arial Rounded MT Bold" />
    </g>
  </g>
</svg>
