<svg width="172" height="25" fill="none" xmlns="http://www.w3.org/2000/svg"><path fill-rule="evenodd" clip-rule="evenodd" d="M18.5213 19.8198h-3.424V0h3.424v19.8198zM13.397 4.49743c0 .98139-.8056 1.77672-1.7997 1.77672-.9941 0-1.79973-.79533-1.79973-1.77672 0-.98139.80563-1.77613 1.79973-1.77613.9941 0 1.7997.79474 1.7997 1.77613zM6.7732 12.4373c1.40374 0 2.34017-.8963 2.34017-2.2833 0-1.38638-.96378-2.33725-2.42282-2.33725-1.3217 0-2.25753.92387-2.25753 2.39185 0 1.4134.88114 2.2287 2.34018 2.2287zm-3.05562 8.535c0 .9239 1.04582 1.5772 2.80808 1.5772 2.39547 0 3.74454-.7613 3.74454-1.7673 0-.7883-.63323-1.0877-1.92698-1.1417l-3.1666-.1632c-.99113.462-1.45904.8969-1.45904 1.495zm-2.64357-4.3764c0-1.0061.74319-1.9839 2.14753-2.6912-1.3211-.7877-2.0096-2.0655-2.0096-3.7237 0-2.90834 2.20224-4.94625 5.47883-4.94625 1.34429 0 2.68264.42789 3.71123 1.29482.6796.57229 1.2141 1.32242 1.5066 2.15707.1986.56524.261 1.17098.261 1.76676 0 2.7452-2.0375 4.5395-5.39618 4.5395-.60585 0-1.12906-.0546-1.56963-.1638-.6332.2448-.93583.5711-.93583.9515 0 .8097.95719.8717 2.76933.989h.00029l.00096.0001h.0002c.31687.0205.65986.0427 1.02843.0709 3.71713.2718 5.28623.9785 5.28623 3.6967 0 2.7998-2.3402 4.4033-6.77262 4.4033-4.04714 0-6.11203-1.2508-6.11203-3.561 0-1.3318.79789-2.0655 2.50486-2.6091-1.29375-.6245-1.8996-1.1962-1.8996-2.1746zm25.53839.6073c1.8503 0 2.7338-1.4996 2.7338-4.5254 0-3.02634-.8835-4.49843-2.7338-4.49843-1.8223 0-2.7338 1.47209-2.7338 4.49843 0 3.0258.9115 4.5254 2.7338 4.5254zm.0001-11.94175c3.8664 0 6.1857 2.727 6.1857 7.41615 0 4.6887-2.3473 7.4157-6.1857 7.4157-3.8385 0-6.1858-2.754-6.1858-7.4157 0-4.68915 2.32-7.41615 6.1858-7.41615zm17.0664 7.41605c0 2.9712-1.1599 4.5801-3.0655 4.5801-.9388 0-1.7123-.4091-2.5685-1.2268V9.24209c.8841-.79063 1.6571-1.19974 2.5959-1.19974 1.8502 0 3.0381 1.63585 3.0381 4.63515zM34.7035.00094603V16.4944c0 .6815-.0553 1.7996-.1659 3.3257h2.6511l.3597-1.5261c1.1873 1.2538 2.3747 1.7991 3.9211 1.7991 3.2861 0 5.6334-2.9712 5.6334-7.4157 0-4.60698-2.4026-7.41556-5.5228-7.41556-1.4638 0-2.5132.49069-3.5073 1.63643V.00094603h-3.3693zM51.493 15.8945c0 .9544.5524 1.5273 1.5465 1.5273 1.0773 0 2.1267-.4913 3.1761-1.5003v-3.0534c-3.2035.4362-4.7226 1.336-4.7226 3.0264zm4.8053 2.6717c-1.3252.9538-2.7617 1.4175-4.3081 1.4175-2.43 0-3.8658-1.4451-3.8658-3.8169 0-3.1896 2.6785-4.88 8.2013-5.5615V9.48778c0-1.03598-.7176-1.63585-2.0435-1.63585-1.3253 0-2.4026.57229-3.1755 1.63585l-2.32-1.44508c1.2153-1.8542 3.0655-2.781 5.5514-2.781 3.3961 0 5.3016 1.60884 5.3016 4.22608v8.39702c0 .4913.0833 1.1451.2212 1.9352h-3.2587l-.3039-1.2538zm9.6644 1.2536h-3.4241V0h3.4241v19.8198zm4.9589-3.8168c1.4359 1.7996 2.7338 2.6994 4.3355 2.6994 2.3753 0 3.7832-2.0995 3.7832-5.9981 0-3.89852-1.4079-5.99748-3.7832-5.99748-1.6017 0-2.8996.87222-4.3355 2.67124V16.003zM69.2092 5.56165h1.2706l.4417 1.85361h.138c1.3532-1.4175 2.789-2.12654 4.3355-2.12654 3.1482 0 5.3575 2.69882 5.3575 7.38858 0 4.6892-2.2093 7.388-5.3575 7.388-1.5465 0-2.9823-.6814-4.3355-2.0995h-.138v7.0341h-1.7123V5.56165zM83.569 16.1942c0-2.4265 2.2367-3.3263 7.0972-4.3892v4.3892c-1.6844 1.6899-3.1202 2.5357-4.6946 2.5357-1.4911 0-2.4026-.9544-2.4026-2.5357zm2.1819 3.8979c1.767 0 3.3408-.7078 4.9152-2.1535.028.6004.138 1.2273.2765 1.8812h1.6844c-.1659-.8992-.2486-1.5537-.2486-1.9088V9.05148c0-2.12654-1.9055-3.73598-4.6393-3.73598-2.4858 0-4.0043.95439-5.137 2.91776l1.3259.76363c.8562-1.52726 2.0156-2.29089 3.5899-2.29089 1.9882 0 3.1762.95439 3.1762 2.34548v1.38992c-6.0485 1.063-8.8375 2.5356-8.8375 5.8338 0 2.2093 1.5191 3.8169 3.8943 3.8169zM93.896 5.56181h1.7123l4.2529 12.13179 4.2248-12.13179h1.63l-5.441 15.37649c-.9941 2.8344-2.1541 4.0066-4.6393 4.0066-.4418 0-.9388-.0264-1.4912-.1086v-1.3629c.4418.0816.8562.1091 1.2153.1091 2.0708 0 3.0096-1.1451 3.562-3.8445L93.896 5.56181zm15.106-.00006h-1.575V19.8201h1.657V9.43272c1.436-1.77143 2.845-2.64423 4.17-2.64423 2.043 0 2.485 1.19973 2.485 3.70781v9.3238h1.657V9.43272c1.409-1.77143 2.845-2.64423 4.17-2.64423 2.044 0 2.486 1.19973 2.486 3.70781v9.3238h1.629V9.89642c0-3.05335-1.215-4.58002-3.645-4.58002-1.546 0-3.065.81763-4.64 2.45348h-.192c-.663-1.63585-1.823-2.45348-3.452-2.45348-1.519 0-3.121.81763-4.64 2.45348h-.11V5.56175zm24.743 1.11753c-2.265 0-3.867 1.69044-4.142 4.74382h7.926c-.084-3.08097-1.52-4.74382-3.784-4.74382zm5.468 9.70542c-1.271 2.5626-2.9 3.6808-5.441 3.6808-3.589 0-5.882-2.8086-5.882-7.28 0-4.71564 2.375-7.49664 5.827-7.49664 3.48 0 5.413 2.37189 5.413 6.89734v.4637h-9.528c.028 3.9525 1.547 6.0521 4.281 6.0521 1.85 0 3.038-.8992 4.059-2.9988l1.271.6815zm3.865-10.82295h-1.712V19.8201h1.712V9.43272c1.547-1.77143 3.064-2.64423 4.501-2.64423 2.209 0 2.707 1.19973 2.707 3.70781v9.3238h1.685V9.89642c0-3.05335-1.299-4.58002-3.894-4.58002-1.603 0-3.287.81763-4.999 2.48106V5.56175zm15.933 13.19495c.387 0 .885-.1092 1.519-.273v1.3635c-.634.1644-1.297.2724-1.934.2724-1.988 0-2.844-.9814-2.844-3.0534V6.95239h-2.153v-1.3905h2.153V1.3358h1.685v4.22609h3.01v1.3905h-3.01V17.1484c0 1.09.498 1.6083 1.574 1.6083zm10.578-2.6443c0 1.4991-1.188 2.6173-2.983 2.6173-1.685 0-3.121-.8452-4.363-2.4817l-1.271 1.009c1.436 1.9088 3.175 2.808 5.441 2.808 2.981 0 4.915-1.7168 4.915-4.0887 0-2.2633-1.463-3.1356-4.336-4.1991-.231-.0864-.453-.1678-.665-.2457-1.995-.7325-3.146-1.1548-3.146-2.53473 0-1.3905 1.022-2.34431 2.596-2.34431 1.602 0 2.79.68146 3.894 2.12596l1.215-.87222c-1.27-1.71743-2.927-2.61724-4.806-2.61724-2.871 0-4.666 1.60826-4.666 3.78939 0 2.18055 1.519 2.99935 4.446 4.06235.145.0534.287.1049.424.155 2.112.7688 3.305 1.2033 3.305 2.8167z" fill="#003C71"/></svg>