<?xml version="1.0" encoding="UTF-8" standalone="no"?>
<svg
   xmlns:dc="http://purl.org/dc/elements/1.1/"
   xmlns:cc="http://creativecommons.org/ns#"
   xmlns:rdf="http://www.w3.org/1999/02/22-rdf-syntax-ns#"
   xmlns:svg="http://www.w3.org/2000/svg"
   xmlns="http://www.w3.org/2000/svg"
   version="1.1"
   id="svg2538"
   xml:space="preserve"
   width="240"
   height="70"
   viewBox="0 0 240 70"><metadata
     id="metadata2544"><rdf:RDF><cc:Work
         rdf:about=""><dc:format>image/svg+xml</dc:format><dc:type
           rdf:resource="http://purl.org/dc/dcmitype/StillImage" /><dc:title></dc:title></cc:Work></rdf:RDF></metadata><defs
     id="defs2542"><clipPath
       clipPathUnits="userSpaceOnUse"
       id="clipPath2610"><path
         d="M 0,1584 H 1224 V 0 H 0 Z"
         id="path2608" /></clipPath><clipPath
       clipPathUnits="userSpaceOnUse"
       id="clipPath14994"><path
         d="M 0,1584 H 1224 V 0 H 0 Z"
         id="path14992" /></clipPath></defs><g
     id="g2546"
     transform="matrix(1.3333333,0,0,-1.3333333,0,2112)"><path
       d="M 783,702 H 994.5 V 567 H 783 Z"
       style="fill:#ffffff;fill-opacity:1;fill-rule:nonzero;stroke:none"
       id="path2548" /><path
       d="M 994.5,702 H 1206 V 567 H 994.5 Z"
       style="fill:#ffffff;fill-opacity:1;fill-rule:nonzero;stroke:none"
       id="path2550" /><g
       id="g14988"><g
         id="g14990"
         clip-path="url(#clipPath14994)"><g
           id="g19788"
           transform="translate(7.132,1543.3521)"><path
             d="m 0,0 c 0.506,0 0.616,0.037 0.666,0.136 l 0.123,0.259 c 0.284,0.16 0.593,0.271 0.839,0.284 L 1.678,0.604 C 1.431,-0.087 1.036,-1.209 0.789,-1.912 l -1.27,-3.69 0.024,-0.024 c 0.864,1.222 1.506,1.715 1.949,2.035 0.445,0.321 0.84,0.482 1.173,0.482 0.543,0 0.74,-0.395 0.74,-0.827 0,-0.851 -0.518,-2.097 -0.963,-2.887 C 2.208,-7.242 1.962,-7.514 1.641,-7.835 1.233,-8.242 0.9,-8.316 0.74,-8.316 c -0.407,0 -0.457,0.259 -0.457,0.358 0,0.21 0.173,0.395 0.333,0.395 0.05,0 0.112,-0.025 0.173,-0.075 0.099,-0.074 0.234,-0.16 0.321,-0.16 0.185,0 0.309,0.186 0.494,0.617 0.333,0.802 0.888,2.505 0.888,3.183 0,0.235 -0.087,0.37 -0.26,0.37 -0.171,0 -0.431,-0.147 -0.666,-0.333 C 1.049,-4.355 0.642,-4.763 0,-5.602 c -0.556,-0.74 -1.173,-1.937 -1.493,-2.566 -0.05,-0.099 -0.111,-0.148 -0.223,-0.148 -0.135,0 -0.456,0.037 -0.357,0.321 l 2.196,6.626 c 0.259,0.777 0.309,0.986 -0.814,0.986 h -1.345 c -0.395,0 -0.395,-0.037 -0.568,-0.543 l -1.801,-5.44 C -4.787,-7.514 -4.8,-7.785 -4.183,-7.835 l 0.456,-0.037 c 0.099,-0.086 0.086,-0.259 -0.048,-0.309 -0.618,0.026 -1.049,0.037 -1.58,0.037 -0.506,0 -0.925,-0.011 -1.505,-0.037 -0.099,0.063 -0.099,0.235 -0.013,0.309 l 0.432,0.037 c 0.543,0.05 0.691,0.21 1.111,1.469 l 1.813,5.44 c 0.185,0.543 0.123,0.543 -0.271,0.543 h -0.987 c -1.222,0 -1.481,-0.296 -2.073,-1.11 -0.124,-0.049 -0.259,0.013 -0.284,0.124 0.309,0.493 0.716,1.258 0.889,1.653 0.049,0.062 0.184,0.062 0.234,0 C -6.046,0.062 -5.873,0 -5.121,0 Z"
             style="fill:#a20e32;fill-opacity:1;fill-rule:nonzero;stroke:none"
             id="path19790" /></g><g
           id="g19792"
           transform="translate(13.0412,1539.2681)"><path
             d="m 0,0 c -0.481,-0.519 -0.765,-1.086 -0.913,-1.443 0.814,0.246 1.196,0.481 1.653,0.913 0.383,0.357 0.482,0.727 0.482,0.839 0,0.123 -0.063,0.283 -0.285,0.283 C 0.765,0.592 0.444,0.481 0,0 m 1.962,0.234 c 0,-0.937 -1.222,-1.554 -2.998,-2.047 -0.087,-0.21 -0.173,-0.605 -0.173,-1.099 0,-0.419 0.259,-0.703 0.592,-0.703 0.444,0 0.753,0.247 1.296,0.716 0.111,0 0.184,-0.099 0.16,-0.21 -0.753,-0.925 -1.456,-1.123 -1.974,-1.123 -0.741,0 -1,0.691 -1,1.295 0,0.778 0.494,2.283 1.839,3.32 0.642,0.493 1.122,0.592 1.481,0.592 0.493,0 0.777,-0.419 0.777,-0.741"
             style="fill:#a20e32;fill-opacity:1;fill-rule:nonzero;stroke:none"
             id="path19794" /></g><g
           id="g19796"
           transform="translate(26.0207,1540.2554)"><path
             d="M 0,0 C 0,0.765 -0.024,2.184 -0.234,2.554 -0.321,2.702 -0.543,2.788 -0.852,2.813 L -1.16,2.838 c -0.074,0.086 -0.049,0.246 0.024,0.296 0.47,-0.025 0.926,-0.037 1.407,-0.037 0.518,0 0.852,0.012 1.295,0.037 C 1.665,3.072 1.653,2.911 1.592,2.838 L 1.295,2.813 C 0.987,2.788 0.753,2.677 0.679,2.517 0.506,2.109 0.506,0.69 0.506,0 v -1.395 c 0,-1.073 -0.173,-2.209 -0.864,-2.949 -0.531,-0.579 -1.444,-0.9 -2.357,-0.9 -0.851,0 -1.702,0.16 -2.306,0.679 -0.655,0.543 -0.963,1.443 -0.963,2.912 v 2.912 c 0,1.282 -0.025,1.492 -0.741,1.554 l -0.308,0.025 c -0.074,0.049 -0.049,0.259 0.024,0.296 0.617,-0.025 1.037,-0.037 1.53,-0.037 0.506,0 0.914,0.012 1.518,0.037 0.074,-0.037 0.099,-0.247 0.024,-0.296 L -4.232,2.813 C -4.948,2.751 -4.973,2.541 -4.973,1.259 v -2.666 c 0,-1.987 0.618,-3.294 2.505,-3.294 1.789,0 2.468,1.406 2.468,3.282 z"
             style="fill:#a20e32;fill-opacity:1;fill-rule:nonzero;stroke:none"
             id="path19798" /></g><g
           id="g19800"
           transform="translate(35.9768,1537.3062)"><path
             d="m 0,0 c 0,-0.37 0,-1.838 0.037,-2.159 -0.024,-0.074 -0.099,-0.136 -0.234,-0.136 -0.149,0.21 -0.506,0.642 -1.579,1.863 L -4.639,2.825 C -4.972,3.208 -5.812,4.22 -6.07,4.491 H -6.095 C -6.145,4.343 -6.156,4.06 -6.156,3.689 V 1 c 0,-0.58 0.011,-2.185 0.221,-2.555 0.075,-0.135 0.322,-0.21 0.629,-0.234 l 0.383,-0.037 c 0.074,-0.099 0.062,-0.246 -0.024,-0.309 -0.556,0.026 -0.988,0.037 -1.444,0.037 -0.518,0 -0.851,-0.011 -1.283,-0.037 -0.087,0.063 -0.099,0.235 -0.025,0.309 l 0.333,0.037 c 0.284,0.037 0.481,0.111 0.543,0.247 0.173,0.444 0.161,1.949 0.161,2.542 v 3.565 c 0,0.346 -0.013,0.605 -0.272,0.889 -0.172,0.172 -0.468,0.259 -0.765,0.296 l -0.209,0.024 c -0.074,0.075 -0.074,0.259 0.024,0.309 0.518,-0.037 1.172,-0.037 1.394,-0.037 0.198,0 0.407,0.013 0.568,0.037 0.246,-0.629 1.702,-2.258 2.109,-2.715 l 1.198,-1.345 c 0.85,-0.95 1.456,-1.64 2.035,-2.233 h 0.025 c 0.049,0.063 0.049,0.26 0.049,0.519 v 2.64 c 0,0.58 -0.012,2.184 -0.247,2.554 -0.073,0.111 -0.27,0.185 -0.765,0.247 l -0.21,0.024 c -0.085,0.075 -0.073,0.272 0.026,0.309 0.567,-0.024 0.986,-0.037 1.456,-0.037 0.53,0 0.85,0.013 1.27,0.037 C 1.123,6.021 1.123,5.849 1.049,5.774 L 0.876,5.75 C 0.481,5.688 0.234,5.59 0.186,5.49 -0.024,5.047 0,3.517 0,2.949 Z"
             style="fill:#a20e32;fill-opacity:1;fill-rule:nonzero;stroke:none"
             id="path19802" /></g><g
           id="g19804"
           transform="translate(38.9992,1541.4771)"><path
             d="M 0,0 C 0,1.308 -0.024,1.518 -0.753,1.579 L -1.061,1.604 C -1.135,1.653 -1.11,1.875 -1.036,1.912 -0.42,1.888 0,1.875 0.519,1.875 1.012,1.875 1.432,1.888 2.048,1.912 2.122,1.875 2.147,1.653 2.073,1.604 L 1.765,1.579 C 1.036,1.518 1.012,1.308 1.012,0 v -4.393 c 0,-1.308 0.024,-1.48 0.753,-1.567 L 2.073,-5.997 C 2.147,-6.046 2.122,-6.269 2.048,-6.306 1.432,-6.28 1.012,-6.269 0.519,-6.269 0,-6.269 -0.42,-6.28 -1.036,-6.306 c -0.074,0.037 -0.099,0.235 -0.025,0.309 l 0.308,0.037 C -0.024,-5.873 0,-5.701 0,-4.393 Z"
             style="fill:#a20e32;fill-opacity:1;fill-rule:nonzero;stroke:none"
             id="path19806" /></g><g
           id="g19808"
           transform="translate(42.8244,1542.0445)"><path
             d="M 0,0 C -0.284,0.69 -0.47,0.95 -1,1.012 L -1.222,1.036 C -1.309,1.11 -1.296,1.283 -1.197,1.345 -0.84,1.32 -0.444,1.308 0.086,1.308 0.629,1.308 1.061,1.32 1.579,1.345 1.665,1.295 1.689,1.11 1.604,1.036 L 1.419,1.012 C 0.949,0.95 0.851,0.876 0.839,0.777 0.863,0.653 1.073,-0.013 1.455,-0.95 2.023,-2.382 2.591,-3.801 3.207,-5.207 3.59,-4.393 4.108,-3.122 4.392,-2.468 4.75,-1.629 5.33,-0.234 5.539,0.296 5.638,0.555 5.65,0.69 5.65,0.777 5.65,0.863 5.527,0.962 5.096,1.012 L 4.873,1.036 C 4.787,1.11 4.812,1.295 4.897,1.345 5.243,1.32 5.712,1.308 6.181,1.308 6.588,1.308 6.971,1.32 7.378,1.345 7.464,1.295 7.464,1.098 7.402,1.036 L 7.032,1.012 C 6.736,0.986 6.551,0.839 6.391,0.58 6.045,0 5.564,-1 5.009,-2.258 L 4.343,-3.775 C 3.849,-4.911 3.27,-6.342 3.06,-6.996 3.022,-7.021 2.973,-7.033 2.924,-7.033 c -0.062,0 -0.123,0.012 -0.186,0.037 -0.135,0.518 -0.357,1.123 -0.567,1.641 z"
             style="fill:#a20e32;fill-opacity:1;fill-rule:nonzero;stroke:none"
             id="path19810" /></g><g
           id="g19812"
           transform="translate(51.51,1541.5015)"><path
             d="M 0,0 C 0,1.283 -0.025,1.468 -0.753,1.555 L -0.95,1.579 C -1.024,1.629 -1,1.851 -0.926,1.888 -0.396,1.863 0.024,1.851 0.53,1.851 h 2.32 c 0.79,0 1.517,0 1.666,0.037 C 4.59,1.678 4.664,0.789 4.713,0.247 4.664,0.173 4.466,0.147 4.404,0.222 4.22,0.802 4.108,1.233 3.467,1.395 3.208,1.456 2.813,1.468 2.27,1.468 H 1.382 c -0.37,0 -0.37,-0.025 -0.37,-0.493 v -2.468 c 0,-0.346 0.037,-0.346 0.407,-0.346 h 0.715 c 0.518,0 0.901,0.026 1.049,0.074 0.148,0.05 0.234,0.123 0.296,0.432 l 0.099,0.506 c 0.062,0.074 0.272,0.074 0.32,-0.012 0,-0.297 -0.048,-0.777 -0.048,-1.246 0,-0.444 0.048,-0.913 0.048,-1.185 C 3.85,-3.356 3.64,-3.356 3.578,-3.282 l -0.111,0.481 c -0.05,0.222 -0.136,0.407 -0.383,0.469 -0.173,0.049 -0.469,0.061 -0.95,0.061 H 1.419 c -0.37,0 -0.407,-0.012 -0.407,-0.333 v -1.739 c 0,-0.654 0.037,-1.074 0.234,-1.283 0.148,-0.148 0.407,-0.284 1.493,-0.284 0.949,0 1.308,0.049 1.579,0.184 0.222,0.124 0.555,0.556 0.876,1.198 0.086,0.061 0.259,0.024 0.309,-0.086 C 5.416,-5.047 5.107,-5.997 4.947,-6.33 3.837,-6.305 2.739,-6.293 1.641,-6.293 H 0.53 c -0.53,0 -0.95,-0.012 -1.677,-0.037 -0.075,0.037 -0.099,0.234 -0.026,0.309 l 0.407,0.037 C -0.062,-5.923 0,-5.737 0,-4.442 Z"
             style="fill:#a20e32;fill-opacity:1;fill-rule:nonzero;stroke:none"
             id="path19814" /></g><g
           id="g19816"
           transform="translate(59.7268,1539.7242)"><path
             d="m 0,0 c 0,-0.222 0,-0.357 0.037,-0.407 0.037,-0.036 0.222,-0.062 0.852,-0.062 0.443,0 0.912,0.05 1.27,0.322 0.333,0.258 0.617,0.69 0.617,1.53 0,0.974 -0.604,1.899 -1.974,1.899 C 0.037,3.282 0,3.233 0,2.888 Z m -1.012,1.765 c 0,1.172 -0.037,1.381 -0.543,1.443 l -0.394,0.05 c -0.087,0.061 -0.087,0.259 0.012,0.308 0.691,0.062 1.542,0.099 2.751,0.099 0.765,0 1.493,-0.061 2.061,-0.37 0.592,-0.309 1.023,-0.863 1.023,-1.728 0,-1.171 -0.924,-1.813 -1.542,-2.06 -0.061,-0.074 0,-0.197 0.062,-0.296 C 3.405,-2.381 4.06,-3.368 4.898,-4.071 5.108,-4.256 5.416,-4.392 5.75,-4.417 5.812,-4.441 5.823,-4.54 5.762,-4.59 5.65,-4.626 5.453,-4.651 5.219,-4.651 4.17,-4.651 3.541,-4.343 2.665,-3.097 2.344,-2.64 1.838,-1.789 1.456,-1.233 1.271,-0.962 1.073,-0.839 0.58,-0.839 0.024,-0.839 0,-0.851 0,-1.11 V -2.665 C 0,-3.96 0.024,-4.108 0.74,-4.207 L 0.999,-4.244 C 1.073,-4.306 1.049,-4.516 0.975,-4.553 0.42,-4.527 0,-4.516 -0.494,-4.516 c -0.518,0 -0.962,-0.011 -1.542,-0.037 -0.074,0.037 -0.099,0.223 -0.025,0.309 l 0.309,0.037 c 0.716,0.087 0.74,0.247 0.74,1.542 z"
             style="fill:#a20e32;fill-opacity:1;fill-rule:nonzero;stroke:none"
             id="path19818" /></g><g
           id="g19820"
           transform="translate(67.8566,1535.0113)"><path
             d="m 0,0 c -1.036,0 -1.69,0.321 -1.925,0.457 -0.147,0.272 -0.307,1.147 -0.333,1.727 0.063,0.087 0.247,0.111 0.297,0.037 0.185,-0.629 0.69,-1.838 2.122,-1.838 1.036,0 1.542,0.679 1.542,1.419 0,0.543 -0.111,1.147 -1.012,1.727 L -0.48,4.294 c -0.618,0.407 -1.333,1.11 -1.333,2.122 0,1.172 0.913,2.122 2.517,2.122 0.382,0 0.826,-0.074 1.148,-0.16 C 2.012,8.328 2.185,8.304 2.283,8.304 2.394,8.008 2.505,7.316 2.505,6.799 2.456,6.725 2.259,6.687 2.196,6.762 2.036,7.354 1.703,8.155 0.519,8.155 -0.69,8.155 -0.949,7.354 -0.949,6.786 -0.949,6.07 -0.357,5.553 0.1,5.269 L 1.086,4.651 C 1.863,4.171 2.629,3.455 2.629,2.282 2.629,0.926 1.604,0 0,0"
             style="fill:#a20e32;fill-opacity:1;fill-rule:nonzero;stroke:none"
             id="path19822" /></g><g
           id="g19824"
           transform="translate(72.7063,1541.4771)"><path
             d="M 0,0 C 0,1.308 -0.025,1.518 -0.753,1.579 L -1.062,1.604 C -1.136,1.653 -1.111,1.875 -1.037,1.912 -0.42,1.888 0,1.875 0.518,1.875 c 0.493,0 0.913,0.013 1.53,0.037 C 2.122,1.875 2.146,1.653 2.072,1.604 L 1.764,1.579 C 1.036,1.518 1.011,1.308 1.011,0 v -4.393 c 0,-1.308 0.025,-1.48 0.753,-1.567 l 0.308,-0.037 c 0.074,-0.049 0.05,-0.272 -0.024,-0.309 -0.617,0.026 -1.037,0.037 -1.53,0.037 -0.518,0 -0.938,-0.011 -1.555,-0.037 -0.074,0.037 -0.099,0.235 -0.025,0.309 l 0.309,0.037 C -0.025,-5.873 0,-5.701 0,-4.393 Z"
             style="fill:#a20e32;fill-opacity:1;fill-rule:nonzero;stroke:none"
             id="path19826" /></g><g
           id="g19828"
           transform="translate(79.8371,1537.0592)"><path
             d="m 0,0 c 0,-1.295 0.024,-1.48 0.74,-1.542 l 0.395,-0.037 c 0.074,-0.049 0.05,-0.272 -0.025,-0.309 -0.703,0.026 -1.123,0.037 -1.616,0.037 -0.493,0 -0.926,-0.011 -1.715,-0.037 -0.074,0.037 -0.098,0.247 0,0.309 l 0.445,0.037 c 0.703,0.062 0.764,0.247 0.764,1.542 v 5.516 c 0,0.382 0,0.394 -0.37,0.394 H -2.061 C -2.591,5.91 -3.27,5.886 -3.578,5.602 -3.874,5.331 -3.998,5.06 -4.134,4.751 -4.232,4.677 -4.405,4.738 -4.454,4.837 c 0.197,0.556 0.383,1.345 0.469,1.839 0.037,0.024 0.197,0.037 0.234,0 0.074,-0.396 0.481,-0.383 1.049,-0.383 h 4.997 c 0.666,0 0.777,0.024 0.962,0.346 C 3.319,6.663 3.455,6.65 3.479,6.602 3.344,6.096 3.257,5.097 3.294,4.726 3.245,4.627 3.035,4.627 2.974,4.701 2.937,5.01 2.85,5.466 2.665,5.602 2.381,5.812 1.912,5.91 1.233,5.91 H 0.357 C -0.013,5.91 0,5.898 0,5.491 Z"
             style="fill:#a20e32;fill-opacity:1;fill-rule:nonzero;stroke:none"
             id="path19830" /></g><g
           id="g19832"
           transform="translate(87.5852,1537.0845)"><path
             d="M 0,0 C 0,-1.32 0.074,-1.518 0.74,-1.567 L 1.209,-1.604 C 1.283,-1.679 1.259,-1.876 1.185,-1.913 0.419,-1.888 0,-1.876 -0.494,-1.876 c -0.518,0 -0.962,-0.012 -1.616,-0.037 -0.075,0.037 -0.099,0.234 -0.025,0.309 l 0.383,0.037 c 0.716,0.074 0.74,0.247 0.74,1.567 v 0.629 c 0,0.679 -0.037,0.839 -0.395,1.53 l -1.455,2.838 c -0.42,0.815 -0.605,0.876 -0.975,0.938 l -0.346,0.061 c -0.074,0.086 -0.061,0.259 0.025,0.309 0.394,-0.025 0.839,-0.037 1.431,-0.037 0.568,0 1.012,0.012 1.32,0.037 C -1.296,6.268 -1.296,6.07 -1.37,5.996 L -1.53,5.972 C -1.962,5.91 -2.049,5.848 -2.049,5.749 c 0,-0.123 0.321,-0.826 0.383,-0.95 0.457,-0.912 0.913,-1.888 1.395,-2.738 0.382,0.653 0.789,1.369 1.16,2.085 0.344,0.641 0.801,1.48 0.801,1.628 0,0.074 -0.222,0.161 -0.518,0.198 L 0.95,5.996 C 0.863,6.082 0.876,6.255 0.975,6.305 1.419,6.28 1.776,6.268 2.159,6.268 2.542,6.268 2.887,6.28 3.307,6.305 3.405,6.243 3.418,6.07 3.331,5.996 L 2.985,5.935 C 2.344,5.823 1.974,5.046 1.357,3.985 L 0.58,2.64 C 0.037,1.702 0,1.592 0,0.642 Z"
             style="fill:#a20e32;fill-opacity:1;fill-rule:nonzero;stroke:none"
             id="path19834" /></g><g
           id="g19836"
           transform="translate(96.2463,1539.2808)"><path
             d="m 0,0 c -0.716,-0.963 -1.197,-2.431 -1.234,-3.085 -0.025,-0.432 0.148,-0.79 0.505,-0.79 0.272,0 0.581,0.111 0.975,0.642 0.543,0.728 1.123,2.357 1.148,3.01 C 1.406,0.16 1.332,0.592 0.9,0.592 0.653,0.592 0.357,0.48 0,0 M 2.245,-0.593 C 2.208,-1.271 1.851,-2.456 0.937,-3.394 0.172,-4.183 -0.494,-4.245 -0.827,-4.245 c -0.79,0 -1.308,0.58 -1.234,1.641 0.049,0.765 0.506,1.962 1.345,2.764 0.642,0.617 1.196,0.802 1.702,0.802 0.876,0 1.309,-0.653 1.259,-1.555"
             style="fill:#a20e32;fill-opacity:1;fill-rule:nonzero;stroke:none"
             id="path19838" /></g><g
           id="g19840"
           transform="translate(101.551,1539.6138)"><path
             d="m 0,0 c -0.074,-0.21 -0.173,-0.604 -0.32,-1.147 -0.371,-1.382 -0.704,-2.567 -1.099,-3.924 -0.32,-1.111 -0.727,-1.74 -0.975,-1.987 -0.185,-0.172 -0.752,-0.666 -1.48,-0.666 -0.666,0 -0.901,0.419 -0.901,0.605 0,0.246 0.148,0.456 0.284,0.555 0.098,0.074 0.21,0.037 0.284,-0.049 0.296,-0.309 0.666,-0.506 0.937,-0.506 0.248,0 0.506,0.086 0.79,1.036 0.568,1.949 1,4.071 1.591,6.083 h -1.023 c -0.124,0.11 -0.074,0.345 0.086,0.456 h 1.061 c 0.321,1.11 0.654,2.073 1.382,2.937 0.616,0.728 1.258,1.024 1.974,1.024 0.457,0 0.95,-0.321 0.95,-0.814 0,-0.321 -0.333,-0.704 -0.53,-0.704 -0.112,0 -0.161,0.112 -0.173,0.198 -0.037,0.678 -0.383,0.9 -0.692,0.9 C 1.875,3.997 1.542,3.751 1.259,3.331 0.691,2.505 0.444,1.628 0.111,0.456 H 1.653 C 1.74,0.32 1.715,0.136 1.53,0 Z"
             style="fill:#a20e32;fill-opacity:1;fill-rule:nonzero;stroke:none"
             id="path19842" /></g><g
           id="g19844"
           transform="translate(116.4299,1538.9351)"><path
             d="m 0,0 c 0,2.036 -0.9,4.231 -3.257,4.231 -1.283,0 -2.949,-0.876 -2.949,-3.577 0,-1.826 0.889,-4.195 3.319,-4.195 C -1.406,-3.541 0,-2.431 0,0 m -7.439,0.259 c 0,2.468 1.85,4.355 4.392,4.355 2.85,0 4.281,-2.06 4.281,-4.232 0,-2.492 -1.9,-4.306 -4.281,-4.306 -2.739,0 -4.392,1.962 -4.392,4.183"
             style="fill:#a20e32;fill-opacity:1;fill-rule:nonzero;stroke:none"
             id="path19846" /></g><g
           id="g19848"
           transform="translate(119.8107,1541.5015)"><path
             d="m 0,0 c 0,1.295 -0.024,1.493 -0.74,1.555 l -0.309,0.024 c -0.074,0.05 -0.05,0.272 0.025,0.309 0.604,-0.025 1,-0.037 1.554,-0.037 0.482,0 0.901,0.012 1.432,0.037 C 2.035,1.851 2.061,1.629 1.986,1.579 L 1.752,1.555 C 1.036,1.48 1.012,1.295 1.012,0 v -1.419 c 0,-0.234 0.024,-0.469 0.16,-0.469 0.111,0 0.259,0.075 0.346,0.136 0.172,0.148 0.493,0.469 0.628,0.592 l 1.333,1.32 c 0.235,0.222 0.839,0.852 0.962,1.025 0.062,0.086 0.087,0.147 0.087,0.197 0,0.049 -0.049,0.086 -0.21,0.123 L 3.985,1.579 C 3.898,1.665 3.911,1.826 4.01,1.888 4.441,1.863 4.936,1.851 5.367,1.851 5.799,1.851 6.219,1.863 6.589,1.888 6.675,1.826 6.687,1.653 6.613,1.579 6.292,1.555 5.812,1.431 5.466,1.233 5.12,1.036 4.43,0.456 3.738,-0.197 L 2.628,-1.246 C 2.455,-1.419 2.344,-1.53 2.344,-1.629 2.344,-1.715 2.418,-1.813 2.578,-2.012 3.751,-3.356 4.701,-4.467 5.663,-5.479 5.959,-5.774 6.23,-5.935 6.65,-5.984 L 6.983,-6.021 C 7.069,-6.083 7.045,-6.293 6.959,-6.33 6.638,-6.305 6.156,-6.293 5.577,-6.293 5.071,-6.293 4.639,-6.305 4.071,-6.33 3.985,-6.305 3.948,-6.096 4.022,-6.021 l 0.284,0.049 c 0.173,0.025 0.296,0.062 0.296,0.123 0,0.075 -0.086,0.173 -0.172,0.285 -0.235,0.295 -0.556,0.628 -1.025,1.159 l -0.987,1.11 c -0.703,0.79 -0.9,1.037 -1.196,1.037 -0.186,0 -0.21,-0.161 -0.21,-0.593 v -1.591 c 0,-1.295 0.024,-1.468 0.716,-1.542 L 2.061,-6.021 C 2.135,-6.07 2.109,-6.293 2.035,-6.33 1.431,-6.305 1.012,-6.293 0.53,-6.293 c -0.506,0 -0.925,-0.012 -1.43,-0.037 -0.075,0.037 -0.1,0.223 -0.026,0.309 l 0.247,0.037 C -0.024,-5.886 0,-5.737 0,-4.442 Z"
             style="fill:#a20e32;fill-opacity:1;fill-rule:nonzero;stroke:none"
             id="path19850" /></g><g
           id="g19852"
           transform="translate(128.1379,1541.5015)"><path
             d="M 0,0 C 0,1.295 -0.024,1.493 -0.802,1.555 L -1.11,1.579 c -0.074,0.05 -0.049,0.272 0.025,0.309 0.69,-0.025 1.11,-0.037 1.604,-0.037 0.481,0 0.9,0.012 1.517,0.037 C 2.11,1.851 2.135,1.629 2.061,1.579 L 1.765,1.555 C 1.037,1.493 1.013,1.295 1.013,0 v -4.294 c 0,-0.777 0.036,-1.098 0.258,-1.332 0.136,-0.136 0.371,-0.284 1.345,-0.284 1.049,0 1.308,0.049 1.505,0.16 0.247,0.148 0.568,0.593 0.815,1.222 0.074,0.061 0.308,0.012 0.308,-0.075 0,-0.135 -0.346,-1.394 -0.517,-1.727 -0.63,0.025 -1.802,0.037 -3.073,0.037 H 0.519 c -0.519,0 -0.914,-0.012 -1.604,-0.037 -0.074,0.037 -0.099,0.234 -0.025,0.309 l 0.37,0.037 C -0.024,-5.91 0,-5.737 0,-4.442 Z"
             style="fill:#a20e32;fill-opacity:1;fill-rule:nonzero;stroke:none"
             id="path19854" /></g><g
           id="g19856"
           transform="translate(135.9602,1539.1695)"><path
             d="m 0,0 c -0.099,-0.284 -0.086,-0.296 0.26,-0.296 h 1.517 c 0.358,0 0.382,0.049 0.272,0.382 L 1.382,2.098 C 1.283,2.394 1.172,2.727 1.099,2.875 H 1.073 C 1.037,2.813 0.913,2.517 0.777,2.146 Z M 2.443,-1.099 C 2.356,-0.827 2.308,-0.79 1.937,-0.79 H 0.074 c -0.308,0 -0.383,-0.037 -0.469,-0.296 l -0.431,-1.296 c -0.186,-0.555 -0.272,-0.888 -0.272,-1.023 0,-0.149 0.062,-0.223 0.358,-0.247 l 0.407,-0.037 c 0.087,-0.062 0.087,-0.259 -0.024,-0.309 -0.322,0.025 -0.704,0.025 -1.284,0.037 -0.407,0 -0.851,-0.024 -1.184,-0.037 -0.074,0.05 -0.099,0.247 -0.025,0.309 l 0.408,0.037 c 0.296,0.024 0.567,0.16 0.74,0.604 0.222,0.568 0.567,1.37 1.086,2.752 L 0.642,3.035 C 0.814,3.479 0.889,3.714 0.852,3.911 1.147,3.997 1.357,4.22 1.493,4.38 1.567,4.38 1.653,4.355 1.679,4.269 1.839,3.727 2.036,3.158 2.221,2.615 l 1.69,-4.96 C 4.27,-3.405 4.43,-3.591 4.96,-3.652 l 0.333,-0.037 c 0.087,-0.062 0.062,-0.259 0,-0.309 -0.506,0.025 -0.938,0.037 -1.492,0.037 -0.593,0 -1.062,-0.024 -1.419,-0.037 -0.099,0.05 -0.111,0.247 -0.026,0.309 l 0.359,0.037 c 0.259,0.024 0.431,0.098 0.431,0.222 0,0.136 -0.061,0.358 -0.16,0.654 z"
             style="fill:#a20e32;fill-opacity:1;fill-rule:nonzero;stroke:none"
             id="path19858" /></g><g
           id="g19860"
           transform="translate(144.2756,1539.1939)"><path
             d="m 0,0 c -0.592,0 -0.616,-0.024 -0.616,-0.395 v -1.74 c 0,-1.295 0.061,-1.468 0.752,-1.542 l 0.358,-0.037 c 0.073,-0.049 0.049,-0.271 -0.025,-0.308 -0.666,0.025 -1.085,0.037 -1.567,0.037 -0.53,0 -0.95,-0.025 -1.431,-0.037 -0.075,0.037 -0.099,0.234 -0.025,0.308 l 0.21,0.037 c 0.691,0.123 0.716,0.247 0.716,1.542 v 4.443 c 0,1.295 -0.087,1.505 -0.728,1.554 l -0.321,0.025 c -0.074,0.05 -0.05,0.271 0.025,0.308 0.604,-0.012 1.024,-0.037 1.554,-0.037 0.482,0 0.901,0.013 1.431,0.037 C 0.407,4.158 0.432,3.937 0.358,3.887 L 0.124,3.862 C -0.592,3.788 -0.616,3.603 -0.616,2.308 V 0.889 C -0.616,0.506 -0.592,0.494 0,0.494 h 3.529 c 0.592,0 0.617,0.012 0.617,0.395 v 1.419 c 0,1.295 -0.025,1.48 -0.752,1.554 L 3.159,3.887 C 3.085,3.937 3.109,4.158 3.184,4.195 3.751,4.171 4.171,4.158 4.677,4.158 c 0.48,0 0.9,0.013 1.456,0.037 C 6.206,4.158 6.231,3.937 6.157,3.887 L 5.897,3.862 C 5.183,3.788 5.157,3.603 5.157,2.308 v -4.443 c 0,-1.295 0.026,-1.455 0.74,-1.542 l 0.297,-0.037 c 0.075,-0.049 0.049,-0.271 -0.024,-0.308 -0.593,0.025 -1.013,0.037 -1.493,0.037 -0.506,0 -0.95,-0.012 -1.493,-0.037 -0.075,0.037 -0.099,0.234 -0.025,0.308 l 0.235,0.037 c 0.752,0.123 0.752,0.247 0.752,1.542 v 1.74 C 4.146,-0.024 4.121,0 3.529,0 Z"
             style="fill:#a20e32;fill-opacity:1;fill-rule:nonzero;stroke:none"
             id="path19862" /></g><g
           id="g19864"
           transform="translate(159.0197,1538.9351)"><path
             d="m 0,0 c 0,2.036 -0.9,4.231 -3.258,4.231 -1.283,0 -2.948,-0.876 -2.948,-3.577 0,-1.826 0.888,-4.195 3.318,-4.195 C -1.406,-3.541 0,-2.431 0,0 m -7.44,0.259 c 0,2.468 1.851,4.355 4.392,4.355 2.851,0 4.281,-2.06 4.281,-4.232 0,-2.492 -1.899,-4.306 -4.281,-4.306 -2.739,0 -4.392,1.962 -4.392,4.183"
             style="fill:#a20e32;fill-opacity:1;fill-rule:nonzero;stroke:none"
             id="path19866" /></g><g
           id="g19868"
           transform="translate(165.6203,1538.5035)"><path
             d="m 0,0 c 0.283,-0.58 0.555,-1.147 0.852,-1.69 h 0.024 c 0.333,0.58 0.642,1.221 0.95,1.85 L 2.985,2.517 C 3.541,3.64 3.898,4.318 3.924,4.886 4.343,4.849 4.603,4.849 4.849,4.849 5.157,4.849 5.564,4.861 5.947,4.886 6.021,4.836 6.021,4.627 5.959,4.577 L 5.7,4.553 C 4.923,4.479 4.824,4.244 4.837,3.38 4.861,2.072 4.874,-0.21 4.972,-1.986 c 0.037,-0.618 0.025,-0.951 0.605,-1 L 5.972,-3.023 C 6.046,-3.098 6.033,-3.282 5.947,-3.332 5.441,-3.307 4.936,-3.295 4.491,-3.295 4.06,-3.295 3.504,-3.307 2.998,-3.332 2.912,-3.27 2.899,-3.098 2.974,-3.023 l 0.357,0.037 c 0.605,0.061 0.605,0.258 0.605,1.049 L 3.898,3.208 H 3.874 C 3.788,3.072 3.319,2.085 3.072,1.604 L 1.974,-0.556 C 1.419,-1.642 0.863,-2.801 0.642,-3.369 0.617,-3.405 0.567,-3.418 0.518,-3.418 c -0.025,0 -0.086,0.013 -0.111,0.049 -0.21,0.654 -0.802,1.863 -1.086,2.468 l -1.11,2.381 c -0.26,0.568 -0.519,1.209 -0.79,1.777 H -2.604 C -2.653,2.492 -2.69,1.776 -2.727,1.061 c -0.037,-0.752 -0.086,-1.851 -0.086,-2.9 0,-0.913 0.074,-1.11 0.555,-1.147 l 0.469,-0.037 c 0.086,-0.075 0.074,-0.272 -0.013,-0.309 -0.419,0.025 -0.9,0.037 -1.369,0.037 -0.395,0 -0.839,-0.012 -1.259,-0.037 -0.074,0.062 -0.098,0.247 -0.024,0.309 l 0.271,0.037 c 0.519,0.074 0.691,0.148 0.765,1.011 0.074,0.815 0.136,1.494 0.21,2.715 0.062,1.024 0.111,2.073 0.136,2.751 0.024,0.778 -0.074,0.963 -0.827,1.062 l -0.198,0.024 c -0.061,0.074 -0.049,0.259 0.05,0.309 0.37,-0.025 0.666,-0.037 0.975,-0.037 0.284,0 0.617,0 1.023,0.037 -0.049,-0.482 0.26,-1.246 0.642,-2.036 z"
             style="fill:#a20e32;fill-opacity:1;fill-rule:nonzero;stroke:none"
             id="path19870" /></g><g
           id="g19872"
           transform="translate(174.6516,1539.1695)"><path
             d="m 0,0 c -0.099,-0.284 -0.087,-0.296 0.259,-0.296 h 1.517 c 0.358,0 0.383,0.049 0.272,0.382 L 1.382,2.098 C 1.283,2.394 1.172,2.727 1.098,2.875 H 1.073 C 1.036,2.813 0.913,2.517 0.777,2.146 Z M 2.442,-1.099 C 2.356,-0.827 2.307,-0.79 1.937,-0.79 H 0.073 c -0.308,0 -0.382,-0.037 -0.469,-0.296 l -0.431,-1.296 c -0.185,-0.555 -0.272,-0.888 -0.272,-1.023 0,-0.149 0.062,-0.223 0.359,-0.247 l 0.407,-0.037 c 0.086,-0.062 0.086,-0.259 -0.025,-0.309 -0.321,0.025 -0.704,0.025 -1.284,0.037 -0.407,0 -0.851,-0.024 -1.184,-0.037 -0.073,0.05 -0.099,0.247 -0.025,0.309 l 0.408,0.037 c 0.296,0.024 0.567,0.16 0.74,0.604 0.222,0.568 0.567,1.37 1.086,2.752 L 0.642,3.035 C 0.813,3.479 0.888,3.714 0.851,3.911 1.147,3.997 1.356,4.22 1.492,4.38 1.566,4.38 1.653,4.355 1.678,4.269 1.838,3.727 2.035,3.158 2.221,2.615 l 1.69,-4.96 c 0.358,-1.06 0.518,-1.246 1.049,-1.307 l 0.333,-0.037 c 0.086,-0.062 0.061,-0.259 0,-0.309 -0.506,0.025 -0.938,0.037 -1.493,0.037 -0.592,0 -1.062,-0.024 -1.419,-0.037 -0.099,0.05 -0.111,0.247 -0.025,0.309 l 0.358,0.037 c 0.259,0.024 0.432,0.098 0.432,0.222 0,0.136 -0.062,0.358 -0.161,0.654 z"
             style="fill:#a20e32;fill-opacity:1;fill-rule:nonzero;stroke:none"
             id="path19874" /></g><g
           id="g19876"
           transform="translate(98.1799,1572.733)"><path
             d="m 0,0 v -16.877 l -1.535,-1.432 H -7.66 l -1.535,1.432 v 3.108 h 1.934 l 5.231,4.877 V 6.39 l -5.231,4.877 h -9.002 L -21.493,6.39 V -8.892 l 5.23,-4.877 h 1.934 v -4.796 l 5.23,-4.878 h 9.002 l 5.231,4.878 V 0 Z M -8.699,6.133 -7.165,4.701 V -7.203 L -8.699,-8.635 H -9.195 V 0 h -5.134 v -8.635 h -0.495 l -1.535,1.432 V 4.701 l 1.535,1.432 z"
             style="fill:#a20e32;fill-opacity:1;fill-rule:nonzero;stroke:none"
             id="path19878" /></g></g></g></g></svg>
