<svg version="1.2" xmlns="http://www.w3.org/2000/svg" viewBox="0 0 1545 333" width="1545" height="333">
	<title>SailPoint-logo</title>
	<style>
		.s0 { fill: #0033a1 } 
		.s1 { fill: #cc27b0 } 
		.s2 { fill: #0071ce } 
		.s3 { fill: #e17fd2 } 
	</style>
	<path class="s0" d="m444.3 170.8c-16.9-4.7-25.6-13-25.6-24.4 0-14.2 13-24.3 30.9-24.3 18.4 0 30.1 9.8 30.8 25.5h44.9c-0.7-39.7-30.8-66.4-75.2-66.4-44.4 0-76.7 27.9-76.7 66.4 0 30.4 19.4 51.8 57.5 63.7l27.6 7.7c20.4 5.8 28.9 13.8 28.4 27.2-0.3 15.4-13.8 25.5-34.7 25.5-22.7 0-34.1-13.5-35.3-27.3h-45.6c0.8 39.7 33.8 67.1 80.8 67.1 38.1 0 79.5-20.5 80.2-65.1 0.9-32.4-19.6-55.1-61.3-67z"/>
	<path class="s0" d="m620.9 153.8c-20.4 0.6-39.9 9.1-54.1 23.8-14.3 14.7-22.3 34.3-22.3 54.7 0 20.5 8 40.1 22.3 54.8 14.2 14.7 33.7 23.2 54.1 23.8 12.6 0 34.6-6.2 43.5-19.8l2.9-4.3v21h42.4v-150.7h-42.3v20.4l-2.8-4c-13.5-19.1-40.7-19.7-43.7-19.7zm4.5 116.7c-5.1 0.2-10.3-0.6-15.1-2.4-4.8-1.8-9.3-4.5-13-8.1-3.7-3.6-6.7-7.8-8.7-12.6-2.1-4.7-3.1-9.8-3.1-15 0-5.1 1-10.2 3.1-15 2-4.7 5-9 8.7-12.6 3.7-3.5 8.2-6.3 13-8.1 4.8-1.8 10-2.6 15.1-2.3 5.1-0.1 10.1 0.8 14.8 2.7 4.7 1.9 9 4.7 12.6 8.2 3.6 3.5 6.4 7.8 8.4 12.4 1.9 4.7 2.9 9.7 2.9 14.7 0 5.1-1 10.1-2.9 14.7-2 4.7-4.8 8.9-8.4 12.4-3.6 3.6-7.9 6.4-12.6 8.2-4.7 1.9-9.7 2.8-14.8 2.8z"/>
	<path fill-rule="evenodd" class="s0" d="m777.3 157.1v150.8h-42.4v-150.8z"/>
	<path fill-rule="evenodd" class="s0" d="m845.5 84.2v223.6h-42.6v-223.6z"/>
	<path class="s0" d="m961.4 84h-91.7v223.9h45.5v-78.4h46.3c54 0 73.2-39.1 73.2-72.6-0.1-50.4-36.8-72.9-73.3-72.9zm-2.3 106.4h-44v-67.1h45.4c19.9 0 28.9 19.6 28.9 33.5 0.3 4.2-0.3 8.4-1.7 12.3-1.4 4-3.6 7.6-6.4 10.8-2.8 3.1-6.2 5.6-10 7.4-3.8 1.8-7.9 2.9-12.1 3.1z"/>
	<path class="s0" d="m1109.8 153.8c-15.5 0-30.6 4.6-43.5 13.3-12.9 8.6-23 20.8-28.9 35.1-6 14.4-7.5 30.1-4.5 45.3 3.1 15.2 10.5 29.2 21.5 40.2 11 10.9 25 18.4 40.2 21.4 15.2 3 31 1.4 45.3-4.5 14.3-6 26.6-16.1 35.2-29 8.6-12.9 13.1-28 13.1-43.5 0.4-10.4-1.4-20.8-5.2-30.4-3.8-9.7-9.6-18.5-16.9-25.8-7.4-7.3-16.2-13.1-25.9-16.9-9.6-3.8-20-5.5-30.4-5.2zm0 115c-7.2 0.1-14.3-2-20.4-6-6-4-10.7-9.7-13.6-16.4-2.8-6.6-3.5-14-2.2-21.1 1.4-7.1 4.8-13.7 9.9-18.8 5.1-5.2 11.6-8.7 18.7-10.2 7.1-1.4 14.5-0.7 21.2 2 6.7 2.7 12.4 7.3 16.5 13.3 4.1 6 6.3 13.1 6.3 20.3 0.2 4.7-0.5 9.3-2.1 13.7-1.6 4.3-4 8.4-7.1 11.8-3.2 3.4-7 6.2-11.2 8.1-4.2 2-8.8 3.1-13.4 3.3z"/>
	<path fill-rule="evenodd" class="s0" d="m1246.8 157.1v150.8h-42.5v-150.8z"/>
	<path class="s0" d="m1316.7 178.7l-2.8 5.4v-27h-42.9v150.7h42.6v-79.8c0-21.4 10.4-32.8 29.9-32.8 17.5 0 28.2 12.3 28.2 32v80.6h42.7v-90.4c0.2-41-19.3-63.7-54.6-63.7-8.8 0-17.4 2.3-24.9 6.6-7.6 4.4-13.9 10.7-18.2 18.3z"/>
	<path class="s0" d="m756.1 135.6c5.2 0 10.4-1.6 14.7-4.5 4.4-2.9 7.8-7 9.8-11.8 2-4.8 2.6-10.2 1.6-15.3-1.1-5.1-3.6-9.9-7.3-13.6-3.7-3.7-8.4-6.2-13.5-7.2-5.1-1.1-10.5-0.6-15.3 1.4-4.8 2-9 5.4-11.9 9.7-2.9 4.4-4.5 9.5-4.5 14.7v0.1c0 3.5 0.7 6.9 2 10.1 2 4.9 5.4 9 9.8 11.9 4.3 2.9 9.4 4.4 14.7 4.5z"/>
	<path class="s0" d="m1225.5 135.6c5.2 0 10.3-1.6 14.7-4.5 4.3-2.9 7.7-7 9.8-11.8 2-4.8 2.5-10.2 1.5-15.3-1-5.1-3.5-9.9-7.2-13.6-3.7-3.7-8.4-6.2-13.6-7.2-5.1-1.1-10.4-0.6-15.2 1.4-4.9 2-9 5.4-12 9.7-2.9 4.4-4.4 9.5-4.5 14.7v0.1c0 3.5 0.7 6.9 2 10.1 2 4.9 5.4 9 9.8 11.9 4.3 2.9 9.4 4.5 14.7 4.5z"/>
	<path class="s0" d="m1525.1 157h-29.7v-58.8h-42.6v58.8h-28.4v35.9h28.4v114.9h42.6v-114.9h29.7z"/>
	<path class="s0" d="m196.2 0.3l41 244h-236.8z"/>
	<path class="s1" d="m195.8 0.3l144.9 244h-104z"/>
	<path class="s2" d="m0.4 244.5h236.8l14.8 88.2z"/>
	<path class="s3" d="m236.6 244.5h104.1l-89.3 88.2z"/>
	<path class="s0" d="m1536.4 279.1c2.5 1.4 4.5 3.5 5.9 6 1.4 2.6 2.1 5.6 2.1 8.6 0 3-0.7 5.9-2.1 8.5-1.4 2.5-3.4 4.6-5.9 6-2.6 1.5-5.5 2.2-8.5 2.2-2.9 0-5.9-0.7-8.5-2.2-2.5-1.4-4.5-3.5-5.9-6-1.4-2.6-2.1-5.5-2.1-8.5 0-3 0.7-6 2.1-8.6 1.4-2.5 3.4-4.6 5.9-6 2.6-1.5 5.6-2.3 8.5-2.2 3-0.1 5.9 0.7 8.5 2.2zm1.3 24.6c2.4-2.8 3.7-6.3 3.7-10 0-3.7-1.3-7.3-3.7-10-2.7-2.6-6.2-4-9.8-4-3.7 0-7.1 1.4-9.8 4-2.4 2.7-3.7 6.3-3.7 10 0 3.6 1.3 7.2 3.7 10 2.6 2.5 6.1 3.9 9.8 3.9 3.6 0 7.1-1.4 9.7-3.9zm-3.6-10.2c-0.8 0.9-2 1.6-3.2 1.8l5 7.1-4.3 0.1-4.6-7.1h-1.9v7.1h-3.6v-18h7.7c1.6-0.1 3.2 0.4 4.4 1.5q0.8 0.7 1.3 1.8 0.4 1 0.3 2.1c0.1 1.3-0.3 2.5-1.1 3.5zm-9-1h3.9c0.7 0 1.4-0.2 1.9-0.6q0.4-0.3 0.6-0.8 0.2-0.4 0.2-1 0-0.5-0.2-0.9-0.2-0.5-0.6-0.8c-0.5-0.3-1.2-0.5-1.9-0.5h-3.9z"/>
</svg>