<?xml version="1.0" encoding="UTF-8" standalone="no"?>
<svg
   xmlns:dc="http://purl.org/dc/elements/1.1/"
   xmlns:cc="http://creativecommons.org/ns#"
   xmlns:rdf="http://www.w3.org/1999/02/22-rdf-syntax-ns#"
   xmlns:svg="http://www.w3.org/2000/svg"
   xmlns="http://www.w3.org/2000/svg"
   xmlns:sodipodi="http://sodipodi.sourceforge.net/DTD/sodipodi-0.dtd"
   xmlns:inkscape="http://www.inkscape.org/namespaces/inkscape"
   id="Layer_1"
   viewBox="0 0 350 67"
   version="1.1"
   inkscape:version="0.48.1 "
   width="100%"
   height="100%"
   sodipodi:docname="usc centered logo.svg">
  <metadata
     id="metadata3421">
    <rdf:RDF>
      <cc:Work
         rdf:about="">
        <dc:format>image/svg+xml</dc:format>
        <dc:type
           rdf:resource="http://purl.org/dc/dcmitype/StillImage" />
      </cc:Work>
    </rdf:RDF>
  </metadata>
  <sodipodi:namedview
     pagecolor="#ffffff"
     bordercolor="#666666"
     borderopacity="1"
     objecttolerance="10"
     gridtolerance="10"
     guidetolerance="10"
     inkscape:pageopacity="0"
     inkscape:pageshadow="2"
     inkscape:window-width="1366"
     inkscape:window-height="705"
     id="namedview3419"
     showgrid="false"
     inkscape:zoom="2.41875"
     inkscape:cx="213.33333"
     inkscape:cy="43.333333"
     inkscape:window-x="-8"
     inkscape:window-y="-8"
     inkscape:window-maximized="1"
     inkscape:current-layer="Layer_1" />
  <defs
     id="defs3353">
    <style
       id="style3355">.cls-1{fill:#73000a;}</style>
  </defs>
  <g
     id="g3423"
     transform="matrix(0.53508269,0,0,0.53508269,-38.495318,-128.27958)">
    <g
       id="g3357">
      <path
         id="path3359"
         d="m 86.81,347.94 c 3.19,3.7 8.44,6.69 14.2,6.69 8.02,0 12.96,-4.94 12.96,-12.14 0,-6.07 -3.91,-9.98 -10.08,-12.76 l -12.45,-5.76 c -7.92,-3.6 -13.79,-8.54 -13.79,-17.59 0,-10.49 9.05,-17.59 25.52,-21.09 6.89,0 14.51,2.26 19.86,5.97 v 14.82 h -6.07 l -2.98,-9.36 c -2.68,-2.88 -6.17,-5.25 -12.14,-5.25 -7.82,0 -12.35,4.22 -12.35,10.29 0,5.14 3.6,8.44 8.95,10.91 l 12.55,5.66 c 9.57,4.53 15.33,9.67 15.23,19.34 0,10.6 -7.82,19.03 -26.96,23.36 -8.95,0 -15.85,-2.78 -21.61,-7 l -2.26,-15.12 h 7.92 l 3.5,9.05 z"
         class="cls-1"
         inkscape:connector-curvature="0"
         style="fill:#73000a" />
      <path
         id="path3361"
         d="m 180.82,332.21 c 0,16.05 -10.6,25.71 -26.24,28.49 -13.48,0 -23.05,-11.82 -23.05,-26.12 0,-16.26 10.6,-25.71 26.24,-28.59 13.48,0 23.05,11.82 23.05,26.23 z m -23.36,23.04 c 6.89,0 10.7,-8.53 10.7,-19.85 0,-14.3 -5.76,-23.96 -13.38,-23.96 -7,0 -10.7,8.53 -10.7,19.85 0,13.37 5.56,23.96 13.38,23.96 z"
         class="cls-1"
         inkscape:connector-curvature="0"
         style="fill:#73000a" />
      <path
         id="path3363"
         d="m 231.48,345.57 c 0,4.22 0.51,5.86 1.34,7.51 h 4.73 l 0.41,4.12 -14.82,2.78 -2.98,-8.64 -14.71,9.36 c -13.07,0 -16.15,-4.32 -16.15,-16.36 v -29.92 l -6.58,0.51 -0.51,-4.53 12.86,-2.78 6.17,-0.41 v 36.91 c 0,4.94 2.06,7.2 6.79,7.2 2.78,0 6.28,-2.06 9.67,-4.32 l 1.95,-1.34 V 314.4 l -5.76,0.51 -0.51,-4.53 11.94,-2.78 6.17,-0.41 v 38.35 z"
         class="cls-1"
         inkscape:connector-curvature="0"
         style="fill:#73000a" />
      <path
         id="path3365"
         d="m 291.08,354.01 5.14,1.13 -0.51,4.12 -10.29,-0.31 -12.24,0.31 -0.51,-4.12 6.58,-1.13 v -59.65 l -6.69,0.21 -0.51,-4.12 13.38,-3.09 5.66,-0.41 v 28.81 l 15.33,-9.77 c 12.66,0 15.54,4.42 15.54,17.29 v 30.74 l 7.1,1.13 -0.51,4.12 -12.24,-0.31 -10.39,0.31 -0.51,-4.12 4.63,-1.13 v -31.77 c 0,-4.84 -2.26,-7 -6.07,-7 -2.98,0 -6.58,2.16 -10.08,4.32 l -2.78,1.75 v 32.7 z"
         class="cls-1"
         inkscape:connector-curvature="0"
         style="fill:#73000a" />
      <g
         id="g3367">
        <path
           id="path3369"
           d="m 416.35,336.83 -2.37,16.46 c -5.86,2.67 -14.52,6.28 -24.4,7.72 -15.64,0 -34.7,-12.76 -34.7,-36.63 0,-23.87 16.9,-36.15 37.27,-39.1 10.39,0 18.02,4.32 22.85,7.51 v 15.54 h -6.38 l -3.29,-9.77 c -2.67,-3.29 -6.6,-7.3 -15.03,-7.3 -14.1,0 -21.22,10.8 -21.22,30.35 0,17.08 6.71,33.23 23.17,33.23 6.38,0 9.37,-3.4 12.56,-6.28 l 5.35,-11.73 h 6.17 z"
           class="cls-1"
           inkscape:connector-curvature="0"
           style="fill:#73000a" />
        <path
           id="path3371"
           d="m 442.14,305.99 c 13.68,0 17.59,3.5 17.59,16.15 v 25.29 c 0,4.32 0.62,6.07 1.65,7.72 h 5.04 l 0.51,4.12 -15.23,1.44 -3.29,-8.85 -12.04,8.85 c -9.16,0 -15.64,-5.14 -15.64,-13.48 0,-4.01 1.54,-7 4.01,-9.88 l 23.05,-7.51 v -8.41 c 0,-6.17 -1.03,-9.05 -5.66,-9.05 -2.57,0 -5.45,0.82 -7.51,1.75 l -1.65,8.95 h -10.6 v -8.64 L 442.12,306 z m 5.66,28.17 -13.07,5.35 c -1.54,1.65 -2.16,4.01 -2.16,6.28 0,5.14 2.88,7 5.56,7 2.68,0 4.73,-1.44 6.07,-2.37 l 3.6,-2.47 v -13.79 z"
           class="cls-1"
           inkscape:connector-curvature="0"
           style="fill:#73000a" />
        <path
           id="path3373"
           d="m 487.43,321.93 11.32,-15.43 h 10.28 l -2.86,12.04 h -7.42 c -2.47,0.72 -6.17,3.81 -8.95,7 l -1.75,2.06 v 26.21 l 10.91,1.03 -0.51,4.42 -16.05,-0.31 -12.14,0.31 -0.51,-4.12 6.69,-1.13 v -39.59 l -6.69,0.51 -0.51,-4.22 12.86,-3.09 4.73,-0.41 0.62,14.71 z"
           class="cls-1"
           inkscape:connector-curvature="0"
           style="fill:#73000a" />
        <path
           id="path3375"
           d="m 556.95,332.21 c 0,16.05 -10.6,25.71 -26.24,28.49 -13.48,0 -23.05,-11.82 -23.05,-26.12 0,-16.26 10.6,-25.71 26.24,-28.59 13.48,0 23.05,11.82 23.05,26.23 z m -23.36,23.04 c 6.89,0 10.7,-8.53 10.7,-19.85 0,-14.3 -5.76,-23.96 -13.38,-23.96 -7,0 -10.7,8.53 -10.7,19.85 0,13.37 5.56,23.96 13.38,23.96 z"
           class="cls-1"
           inkscape:connector-curvature="0"
           style="fill:#73000a" />
        <path
           id="path3377"
           d="m 570.25,358.95 -12.24,0.31 -0.51,-4.12 6.58,-1.13 v -59.65 l -6.69,0.21 -0.51,-4.22 13.38,-3.09 5.66,-0.41 v 67.16 l 7.1,1.13 -0.51,4.12 -12.24,-0.31 z"
           class="cls-1"
           inkscape:connector-curvature="0"
           style="fill:#73000a" />
        <path
           id="path3379"
           d="m 600.4,358.95 -12.24,0.31 -0.51,-4.12 6.69,-1.13 v -39.69 l -6.69,0.41 -0.51,-4.12 13.38,-2.98 5.66,-0.41 v 46.79 l 7,1.13 -0.51,4.12 -12.24,-0.31 z m -5.56,-70.99 8.44,-0.62 3.09,0.62 0.62,6.28 -1.23,5.35 -8.33,0.62 -3.09,-0.62 -0.62,-6.28 1.13,-5.35 z"
           class="cls-1"
           inkscape:connector-curvature="0"
           style="fill:#73000a" />
        <path
           id="path3381"
           d="m 630.83,358.95 -12.24,0.31 -0.51,-4.12 6.69,-1.13 v -39.59 l -6.79,0.51 -0.51,-4.22 13.38,-3.09 5.25,-0.31 0.31,8.54 15.43,-9.88 c 12.65,0 15.64,4.01 15.64,16.36 V 354 l 7.1,1.13 -0.51,4.12 -12.24,-0.31 -10.6,0.31 -0.51,-4.12 4.73,-1.13 v -31.77 c 0,-4.84 -2.16,-7 -6.17,-7 -3.4,0 -6.69,2.16 -9.98,4.32 l -2.67,1.85 v 32.59 l 5.04,1.13 -0.51,4.12 -10.29,-0.31 z"
           class="cls-1"
           inkscape:connector-curvature="0"
           style="fill:#73000a" />
        <path
           id="path3383"
           d="m 697.81,305.99 c 13.68,0 17.59,3.5 17.59,16.15 v 25.29 c 0,4.32 0.62,6.07 1.65,7.72 h 5.04 l 0.51,4.12 -15.23,1.44 -3.29,-8.85 -12.04,8.85 c -9.16,0 -15.64,-5.14 -15.64,-13.48 0,-4.01 1.54,-7 4.01,-9.88 l 23.05,-7.51 v -8.41 c 0,-6.17 -1.03,-9.05 -5.66,-9.05 -2.57,0 -5.45,0.82 -7.51,1.75 l -1.65,8.95 h -10.6 v -8.64 L 697.79,306 z m 5.66,28.17 -13.07,5.35 c -1.54,1.65 -2.16,4.01 -2.16,6.28 0,5.14 2.88,7 5.56,7 2.68,0 4.73,-1.44 6.07,-2.37 l 3.6,-2.47 v -13.79 z"
           class="cls-1"
           inkscape:connector-curvature="0"
           style="fill:#73000a" />
      </g>
      <path
         id="path3385"
         d="m 269.34,350.58 c -2.17,1.01 -4.1,1.68 -6.5,1.68 -3.91,0 -5.35,-2.98 -5.35,-6.28 v -33.72 h 11.86 v -5.04 h -11.96 v -12.65 h -3.6 l -7.92,7.1 v 4.94 h -4.64 l -3.81,3.91 v 1.75 h 8.24 v 34.75 c 0,9.98 4.12,13.68 14.51,13.68 l 8.51,-4.65 0.67,-5.47 z"
         class="cls-1"
         inkscape:connector-curvature="0"
         style="fill:#73000a" />
    </g>
    <g
       id="g3393">
      <path
         id="path3395"
         d="m 238.56,245.94 0.2,-1.6 5.12,0.12 4.64,-0.12 0.2,1.6 -3.32,0.52 v 16.01 c 0,5.24 -2.12,8.76 -10.09,10.65 -8.4,0 -11.37,-4.28 -11.37,-10.65 v -16.01 c 0,0 -3.4,-0.52 -3.4,-0.52 l 0.2,-1.6 5.48,0.12 5.88,-0.12 0.2,1.6 -3.16,0.52 v 16.37 c 0,4.88 2.08,7.72 6.52,7.72 4.12,0 6.36,-2.84 6.36,-7.84 v -16.25 c 0,0 -3.48,-0.52 -3.48,-0.52 z"
         inkscape:connector-curvature="0" />
      <path
         id="path3397"
         d="m 261.29,270.31 3.2,0.52 -0.16,1.6 -4.32,-0.12 -4.72,0.12 -0.2,-1.6 3.4,-0.52 v -23.65 c 0,0 -3.28,-0.72 -3.28,-0.72 l 0.2,-1.6 3.52,0.12 3.56,-0.12 13.49,18.33 0.96,2.84 v -19.05 c 0,0 -3.2,-0.52 -3.2,-0.52 l 0.16,-1.6 4.32,0.12 4.72,-0.12 0.2,1.6 -3.4,0.52 v 26.01 c 0,0 -2.72,0 -2.72,0 l -14.93,-20.77 -0.8,-3.16 v 21.77 z"
         inkscape:connector-curvature="0" />
      <path
         id="path3399"
         d="m 295.38,272.32 -5.72,0.12 -0.2,-1.64 3.4,-0.52 v -23.81 c 0,0 -3.4,-0.52 -3.4,-0.52 l 0.2,-1.6 5.72,0.12 5.72,-0.12 0.2,1.6 -3.4,0.52 v 23.81 c 0,0 3.4,0.52 3.4,0.52 l -0.2,1.64 -5.72,-0.12 z"
         inkscape:connector-curvature="0" />
      <path
         id="path3401"
         d="m 320.51,273.04 -10.13,-26.62 -2.92,-0.48 0.2,-1.6 6.2,0.12 5.08,-0.12 0.2,1.6 -3.2,0.52 6.84,19.09 0.12,2.4 7.6,-21.49 -3.32,-0.52 0.2,-1.6 4.52,0.12 4.16,-0.12 0.2,1.6 -2.84,0.48 -9.77,25.65 -3.16,0.96 z"
         inkscape:connector-curvature="0" />
      <path
         id="path3403"
         d="m 362.86,244.34 0.4,7.4 h -1.64 c 0,0 -2.32,-5.2 -2.32,-5.2 l -10.05,-0.12 v 10.33 c 0,0 5.16,-0.16 5.16,-0.16 l 1.6,-4.24 h 1.68 c 0,0 -0.4,5.2 -0.4,5.2 l 0.4,5.52 h -1.68 c 0,0 -1.6,-4.24 -1.6,-4.24 l -5.16,-0.16 v 11.69 c 0,0 10.49,-0.12 10.49,-0.12 l 2.68,-5.4 h 1.8 c 0,0 -1.36,7.6 -1.36,7.6 l -16.33,-0.12 -5.52,0.12 -0.2,-1.6 3.4,-0.52 v -23.85 c 0,0 -3.4,-0.52 -3.4,-0.52 l 0.2,-1.6 5.52,0.12 16.33,-0.12 z"
         inkscape:connector-curvature="0" />
      <path
         id="path3405"
         d="m 378.67,259.59 v 10.73 c 0,0 3.24,0.52 3.24,0.52 l -0.2,1.6 -5.56,-0.12 -5.72,0.12 -0.2,-1.6 3.4,-0.52 v -23.85 c 0,0 -3.4,-0.52 -3.4,-0.52 l 0.2,-1.6 5.72,0.12 8,-0.12 c 5.04,-0.04 9,2.28 9,6.96 0,4.44 -4.12,6.68 -8.48,7.68 l 3.44,1.8 6.48,9.49 2.04,0.6 -0.16,1.56 -3.76,-0.12 -3,0.12 -8.16,-12.41 -0.48,-0.44 h -2.4 z m 0,-2.04 h 2.72 c 3.68,0 6.24,-2.4 6.24,-5.96 0,-3.6 -2.36,-5.4 -5.4,-5.44 l -3.56,0.28 v 11.13 z"
         inkscape:connector-curvature="0" />
      <path
         id="path3407"
         d="m 405.25,268.03 c 1.24,1.44 3.28,2.6 5.52,2.6 3.12,0 5.04,-1.92 5.04,-4.72 0,-2.36 -1.52,-3.88 -3.92,-4.96 l -4.84,-2.24 c -3.08,-1.4 -5.36,-3.32 -5.36,-6.84 0,-4.08 3.52,-6.84 9.93,-8.2 2.68,0 5.64,0.88 7.72,2.32 v 5.76 c 0,0 -2.36,0 -2.36,0 l -1.16,-3.64 c -1.04,-1.12 -2.4,-2.04 -4.72,-2.04 -3.04,0 -4.8,1.64 -4.8,4 0,2 1.4,3.28 3.48,4.24 l 4.88,2.2 c 3.72,1.76 5.96,3.76 5.92,7.52 0,4.12 -3.04,7.4 -10.49,9.09 -3.48,0 -6.16,-1.08 -8.4,-2.72 l -0.88,-5.88 h 3.08 c 0,0 1.36,3.52 1.36,3.52 z"
         inkscape:connector-curvature="0" />
      <path
         id="path3409"
         d="m 432.75,272.32 -5.72,0.12 -0.2,-1.64 3.4,-0.52 v -23.81 c 0,0 -3.4,-0.52 -3.4,-0.52 l 0.2,-1.6 5.72,0.12 5.72,-0.12 0.2,1.6 -3.4,0.52 v 23.81 c 0,0 3.4,0.52 3.4,0.52 l -0.2,1.64 -5.72,-0.12 z"
         inkscape:connector-curvature="0" />
      <path
         id="path3411"
         d="m 463.51,272.44 -6.76,-0.12 -6.92,0.12 -0.2,-1.6 4.6,-0.52 v -23.85 c 0,0 -5.52,0.08 -5.52,0.08 l -1.92,5.32 h -1.76 v -7.52 c 0,0 11.81,0.12 11.81,0.12 l 11.65,-0.12 v 7.52 c 0,0 -1.8,0 -1.8,0 l -1.88,-5.32 -5.52,-0.08 v 23.85 c 0,0 4.44,0.52 4.44,0.52 l -0.2,1.6 z"
         inkscape:connector-curvature="0" />
      <path
         id="path3413"
         d="m 491.16,261.47 0.04,8.85 4.48,0.52 -0.2,1.6 -6.8,-0.12 -6.96,0.12 -0.2,-1.6 4.64,-0.52 v -8.97 c 0,0 -8.85,-14.97 -8.85,-14.97 l -2.92,-0.48 0.2,-1.56 5.68,0.12 5.56,-0.12 0.2,1.56 -3.2,0.52 6.68,11.29 0.2,1.72 6.96,-13.01 -3.28,-0.52 0.2,-1.56 4.6,0.12 4.28,-0.12 0.2,1.56 -2.92,0.44 -8.6,15.13 z"
         inkscape:connector-curvature="0" />
      <path
         id="path3415"
         d="m 550.86,257.75 c 0,8.85 -4.44,13.57 -14.81,15.37 -8.36,0 -13.93,-6 -13.93,-14.09 0,-8.85 4.44,-13.57 14.81,-15.37 8.36,0 13.93,6 13.93,14.09 z m -13.81,12.97 c 5.8,0 8.28,-5.08 8.28,-11.65 0,-5.88 -2.56,-13.01 -9.37,-13.01 -5.8,0 -8.32,5.04 -8.32,11.61 0,6.04 2.64,13.05 9.41,13.05 z"
         inkscape:connector-curvature="0" />
      <path
         id="path3417"
         d="m 556.86,272.44 -0.2,-1.6 3.4,-0.52 v -23.85 c 0,0 -3.4,-0.52 -3.4,-0.52 l 0.2,-1.6 5.52,0.12 16.33,-0.12 0.4,7.52 h -1.64 c 0,0 -2.32,-5.32 -2.32,-5.32 l -10.05,-0.12 v 10.89 c 0,0 5.16,-0.16 5.16,-0.16 l 1.6,-4.2 h 1.68 c 0,0 -0.4,5.2 -0.4,5.2 l 0.4,5.52 h -1.68 c 0,0 -1.6,-4.24 -1.6,-4.24 l -5.16,-0.16 v 11.05 c 0,0 4.8,0.52 4.8,0.52 l -0.2,1.6 -7.32,-0.12 -5.52,0.12 z"
         inkscape:connector-curvature="0" />
    </g>
  </g>
</svg>
