<?xml version="1.0" encoding="UTF-8" standalone="no"?>
<svg xmlns:rdf="http://www.w3.org/1999/02/22-rdf-syntax-ns#" xmlns="http://www.w3.org/2000/svg" enable-background="new 0 0 612 792" xml:space="preserve" height="27.112" viewBox="0 0 125.30876 27.112" width="125.31" version="1.1" y="0px" x="0px" xmlns:cc="http://creativecommons.org/ns#" xmlns:dc="http://purl.org/dc/elements/1.1/"><path fill="#500000" d="m103.66 12.117c-0.3445 0.5-0.70607 0.722-1.1882 0.722-0.35555 0-0.69302-0.107-1.0084-0.315-0.31738-0.215-0.76534-0.728-1.3107-1.503 0.23603-0.33 0.49114-0.809 0.7774-1.484 0.3445-0.822 0.67293-1.389 0.99433-1.683 0.31336-0.29 0.69201-0.495 1.1138-0.61l0.0653-0.019v-0.534h-3.673v0.544l0.07935 0.011c0.80551 0.092 1.1942 0.414 1.1942 0.988 0 0.247-0.0884 0.602-0.26114 1.053-0.15869 0.414-0.3917 0.816-0.66087 1.207-0.15467-0.213-2.4898-3.431-2.5993-3.582 1.5276-0.783 2.3091-1.605 2.3091-2.451 0-0.565-0.24908-1.025-0.74926-1.371-0.48612-0.34-1.0355-0.514-1.6401-0.514-0.67896 0-1.2535 0.23-1.7044 0.689-0.45096 0.455-0.68096 0.982-0.68096 1.564 0 0.709 0.31839 1.51 0.92402 2.367-1.0084 0.682-1.7205 1.262-2.0891 1.721-0.38267 0.477-0.57249 1.07-0.57249 1.77 0 0.607 0.15467 1.152 0.46101 1.622 0.31136 0.468 0.71009 0.833 1.1942 1.089 0.48812 0.256 1.0044 0.385 1.5357 0.385 1.0636 0 2.078-0.537 3.0312-1.561 0.80651 1.023 1.7416 1.561 2.8032 1.561 0.50419 0 0.95716-0.143 1.3479-0.427 0.3897-0.284 0.64682-0.666 0.76634-1.125l0.0261-0.112-0.48511-0.002zm-7.724-7.7067c0-0.364 0.10646-0.659 0.32742-0.905 0.22598-0.24 0.51424-0.36 0.88084-0.36 0.37463 0 0.66891 0.124 0.8949 0.376 0.22699 0.254 0.33948 0.592 0.33948 1.004 0 0.676-0.52629 1.318-1.5226 1.917-0.60262-0.852-0.92-1.541-0.92-2.032zm-1.157 4.407c0.28223-0.425 0.70607-0.8 1.2223-1.128 0.80149 1.045 1.7577 2.41 2.8484 4.065-0.60664 0.681-1.2695 1.039-1.9776 1.039-0.64882 0-1.2424-0.289-1.7617-0.857-0.52328-0.571-0.78441-1.188-0.78441-1.825-0.001-0.412 0.15266-0.849 0.45297-1.294zm29.411 11.656c-0.1607 0.016-0.29227 0.049-0.39974 0.109-0.10446 0.062-0.20992 0.159-0.31437 0.303-0.10747 0.137-0.26716 0.363-0.47306 0.678l-1.2434 1.916v1.391c0 0.162 0.0161 0.289 0.0532 0.385 0.0291 0.097 0.10948 0.17 0.23101 0.226 0.12152 0.062 0.31336 0.09 0.5755 0.09v0.396h-2.978v-0.396c0.24506 0 0.43489-0.026 0.56245-0.075 0.12755-0.048 0.2079-0.117 0.24908-0.214 0.0392-0.098 0.0593-0.229 0.0593-0.409v-1.314l-1.4855-2.465c-0.0151-0.017-0.0251-0.035-0.0392-0.058-0.011-0.021-0.0211-0.034-0.0251-0.04-0.12956-0.21-0.24306-0.345-0.3455-0.41-0.0974-0.062-0.24507-0.1-0.44293-0.108v-0.397h2.7771v0.397c-0.14463 0-0.25109 0.005-0.33144 0.015-0.0824 0.008-0.14664 0.032-0.19987 0.067-0.0532 0.038-0.0743 0.099-0.0743 0.181 0 0.053 0.0141 0.123 0.0512 0.199 0.0331 0.08 0.11349 0.225 0.23904 0.439l0.92201 1.551 0.87882-1.381c0.18883-0.299 0.28223-0.521 0.28223-0.658 0-0.182-0.0603-0.295-0.18078-0.344-0.11752-0.045-0.28424-0.069-0.49616-0.069v-0.397h2.1524v0.395h-0.004zm-13.612 1.274h-0.4138c-0.0372-0.365-0.11751-0.636-0.24105-0.808-0.12554-0.175-0.25712-0.283-0.40074-0.321-0.1386-0.042-0.30734-0.062-0.48813-0.062h-0.75127v4.313c0 0.175 0.0181 0.306 0.0512 0.398s0.1155 0.168 0.24305 0.219c0.12957 0.056 0.31437 0.082 0.56346 0.082v0.396h-2.9649v-0.396c0.36157 0 0.5966-0.056 0.69904-0.16 0.10546-0.104 0.15669-0.28 0.15669-0.539v-4.313h-0.62774c-0.24707 0-0.45297 0.021-0.61367 0.059-0.1617 0.041-0.30633 0.146-0.43188 0.322-0.12554 0.176-0.19384 0.445-0.20991 0.811h-0.41581v-1.67h5.8474l-0.002 1.669zm-13.413 4.218h-3.0051v-0.396c0.25511 0 0.44293-0.027 0.57048-0.076 0.12756-0.047 0.21192-0.117 0.25109-0.213 0.03917-0.098 0.05926-0.23 0.05926-0.41v-3.697c0-0.256-0.05524-0.436-0.1597-0.539-0.10747-0.106-0.34651-0.158-0.72114-0.158v-0.396h3.0051v0.396c-0.24708 0-0.43791 0.025-0.56446 0.074-0.12956 0.047-0.21192 0.119-0.2531 0.213-0.03515 0.099-0.05825 0.232-0.05825 0.41v3.697c0 0.172 0.02109 0.301 0.05825 0.398 0.03616 0.094 0.11852 0.168 0.24004 0.219 0.12354 0.055 0.31738 0.082 0.57651 0.082v0.396h0.001zm-10.713-1.69c0 0.185-0.0452 0.375-0.12153 0.58-0.07834 0.205-0.19485 0.399-0.35354 0.588-0.15869 0.187-0.35856 0.338-0.60061 0.455-0.23904 0.114-0.52127 0.178-0.83564 0.178-0.31537 0-0.62974-0.069-0.93909-0.204-0.31035-0.138-0.56948-0.341-0.78642-0.609-0.0924 0.215-0.14965 0.414-0.17878 0.596h-0.39874v-2.016h0.39874c0.07231 0.287 0.17476 0.562 0.30232 0.815 0.12756 0.257 0.30935 0.476 0.54537 0.658 0.231 0.183 0.51725 0.274 0.85773 0.274 0.29629 0 0.53332-0.08 0.71009-0.241 0.1828-0.164 0.27118-0.367 0.27118-0.613 0-0.14-0.02411-0.258-0.08035-0.364-0.05926-0.105-0.13559-0.197-0.24004-0.279-0.10546-0.082-0.24908-0.172-0.42887-0.269-0.1828-0.092-0.38869-0.19-0.6207-0.295-0.35856-0.168-0.65485-0.338-0.88084-0.508-0.23-0.17-0.40577-0.336-0.52328-0.498-0.1155-0.16-0.19384-0.312-0.24306-0.457-0.0452-0.146-0.06528-0.293-0.06528-0.438 0-0.265 0.0693-0.525 0.21192-0.777 0.14664-0.258 0.35354-0.469 0.62773-0.633 0.27319-0.162 0.59057-0.244 0.95214-0.244 0.27218 0 0.53734 0.06 0.78843 0.184 0.25109 0.123 0.46502 0.289 0.64882 0.504 0.05524-0.123 0.09843-0.291 0.14162-0.51h0.40778v1.643h-0.40778c-0.28826-0.897-0.79245-1.346-1.5146-1.346-0.26315 0-0.47507 0.07-0.63175 0.207-0.15869 0.139-0.23703 0.314-0.23703 0.531 0 0.172 0.04921 0.318 0.14865 0.445 0.09843 0.125 0.22799 0.231 0.38869 0.324 0.16271 0.09 0.42585 0.221 0.78442 0.387 0.43791 0.205 0.77437 0.385 1.0204 0.535 0.24708 0.151 0.45498 0.34 0.62773 0.567 0.16773 0.229 0.25411 0.506 0.25411 0.83zm-11.89 1.69h-1.5809c-0.06127-0.064-0.13559-0.156-0.21795-0.277-0.08638-0.119-0.18079-0.264-0.28424-0.428-0.09843-0.164-0.1828-0.301-0.24908-0.406l-0.40074-0.66c-0.18179-0.295-0.31537-0.498-0.40978-0.607-0.09039-0.106-0.19384-0.178-0.31336-0.209-0.11751-0.031-0.31939-0.043-0.60162-0.043h-0.22398v1.535c0 0.162 0.01607 0.293 0.05524 0.393 0.03113 0.099 0.11349 0.175 0.24507 0.226 0.13157 0.056 0.31738 0.082 0.56446 0.082v0.396h-2.9649v-0.396c0.35956 0 0.59258-0.056 0.69703-0.16 0.10446-0.104 0.15266-0.28 0.15266-0.538v-3.714c0-0.254-0.04921-0.432-0.14865-0.538-0.10245-0.105-0.33546-0.158-0.70105-0.158v-0.41l1.368-0.043c0.10747-0.008 0.22699-0.012 0.35856-0.016 0.1376-0.002 0.26314-0.004 0.37664-0.004 0.0924 0 0.24105 0.002 0.44896 0.005 0.29629 0.011 0.57149 0.029 0.8266 0.056 0.25812 0.028 0.45699 0.062 0.60664 0.104 0.22197 0.055 0.42585 0.146 0.62372 0.273 0.19284 0.125 0.35153 0.297 0.47908 0.504 0.12354 0.207 0.1838 0.451 0.1838 0.725 0 0.195-0.03917 0.387-0.12555 0.57-0.08437 0.188-0.22699 0.354-0.41581 0.496-0.18983 0.142-0.43992 0.26-0.74926 0.344 0.21192 0.123 0.38869 0.279 0.53935 0.463 0.14563 0.184 0.37664 0.523 0.69703 1.016 0.18179 0.281 0.33144 0.492 0.45297 0.635 0.11751 0.146 0.23 0.242 0.32742 0.296 0.10044 0.049 0.23 0.079 0.38267 0.098v0.39zm-2.4487-4.322c0-0.465-0.14664-0.779-0.43489-0.934-0.28625-0.154-0.66088-0.23-1.1239-0.23-0.06227 0-0.1145 0.003-0.14965 0.005h-0.12555v2.368h0.2752c0.44092 0 0.80952-0.074 1.1088-0.215 0.30131-0.138 0.44996-0.472 0.44996-0.994zm-11.643 2.386-0.05122 1.937h-5.273v-0.396c0.36459 0 0.60162-0.055 0.70607-0.156 0.10044-0.107 0.15467-0.285 0.15467-0.543v-3.697c0-0.17-0.01908-0.303-0.04921-0.395-0.03314-0.096-0.11148-0.17-0.23703-0.225-0.12555-0.051-0.31336-0.08-0.5745-0.08v-0.396h4.9174l0.07131 1.527h-0.39874c-0.08839-0.34-0.18983-0.582-0.31136-0.729-0.11852-0.146-0.2531-0.234-0.39773-0.269-0.14664-0.035-0.3666-0.054-0.65887-0.054h-1.1088v2.084h0.60062c0.2079 0 0.36258-0.02 0.46302-0.055 0.10245-0.035 0.17476-0.104 0.21594-0.205 0.03917-0.102 0.0683-0.26 0.08236-0.477h0.41782v1.959h-0.40074c-0.01306-0.221-0.03917-0.379-0.08939-0.484-0.04319-0.102-0.11651-0.17-0.21795-0.203-0.10044-0.037-0.2531-0.055-0.46101-0.055h-0.60865v1.385c0 0.234 0.006 0.404 0.01607 0.513 0.01406 0.106 0.0452 0.194 0.09642 0.266 0.05022 0.072 0.13458 0.121 0.24908 0.158 0.1155 0.03 0.27821 0.043 0.49013 0.043h0.47507c0.20188 0 0.39371-0.021 0.57249-0.076 0.1828-0.047 0.36057-0.18 0.53533-0.389 0.17476-0.211 0.29629-0.539 0.37061-0.988h0.40376zm-12.807-3.556c-0.1376 0.005-0.25913 0.023-0.36157 0.059-0.10245 0.036-0.18782 0.088-0.25511 0.164-0.06629 0.074-0.13459 0.174-0.20188 0.301-0.06629 0.127-0.15668 0.328-0.27821 0.602l-1.9284 4.48h-0.40577l-2.0188-4.701c-0.12354-0.295-0.22197-0.494-0.28826-0.605-0.0693-0.109-0.16672-0.188-0.28122-0.229-0.11349-0.045-0.28826-0.067-0.51926-0.067v-0.397h3.0111v0.397c-0.28625 0.015-0.48109 0.036-0.59459 0.069-0.10948 0.035-0.16472 0.123-0.16472 0.264 0 0.129 0.03515 0.268 0.10446 0.418l1.3599 3.146 1.2595-2.939c0.10546-0.254 0.15869-0.43 0.15869-0.527 0-0.188-0.06629-0.305-0.19585-0.352-0.13157-0.047-0.32742-0.071-0.59258-0.079v-0.397h2.1935l-0.001 0.393zm-13.994 5.492h-3.0041v-0.396c0.25009 0 0.43791-0.027 0.56647-0.076 0.12856-0.047 0.21092-0.117 0.25109-0.213 0.03817-0.098 0.05926-0.23 0.05926-0.41v-3.697c0-0.256-0.05122-0.436-0.15869-0.539-0.10546-0.106-0.3455-0.158-0.71813-0.158v-0.396h3.0041v0.396c-0.25009 0-0.43992 0.025-0.56747 0.074-0.12756 0.047-0.20991 0.119-0.25109 0.213-0.03917 0.099-0.05926 0.232-0.05926 0.41v3.697c0 0.172 0.02009 0.301 0.05926 0.398 0.03515 0.094 0.1155 0.168 0.24004 0.219 0.12253 0.055 0.31638 0.082 0.57852 0.082v0.396zm-10.465-5.492c-0.28122 0-0.48612 0.029-0.60664 0.087-0.12253 0.059-0.19887 0.142-0.22799 0.251-0.02712 0.109-0.04419 0.287-0.04419 0.537v4.672h-0.39874l-3.8739-4.58v3.244c0 0.246 0.01507 0.424 0.0452 0.537 0.02913 0.111 0.10747 0.197 0.23201 0.256s0.32642 0.092 0.60764 0.092v0.396h-2.2006v-0.396c0.26314 0 0.45297-0.033 0.57048-0.092s0.18983-0.145 0.21996-0.256c0.02712-0.113 0.04118-0.291 0.04118-0.537v-3.004c0-0.244-0.008-0.428-0.02009-0.549-0.01406-0.121-0.0462-0.229-0.09441-0.318-0.05022-0.092-0.13157-0.166-0.24205-0.221-0.11249-0.06-0.26616-0.099-0.46603-0.119v-0.396h1.7245l3.3727 3.961v-2.689c0-0.219-0.01707-0.387-0.0452-0.504-0.03214-0.116-0.10646-0.209-0.22799-0.272-0.12052-0.063-0.31136-0.097-0.5755-0.097v-0.397h2.2086l0.001 0.394zm-13.948 0c-0.26917 0-0.45699 0.033-0.57048 0.094-0.1155 0.062-0.18681 0.148-0.21192 0.262-0.025109 0.114-0.03917 0.285-0.03917 0.52v2.175c0 0.401-0.01607 0.698-0.041179 0.901-0.027118 0.201-0.10144 0.404-0.22096 0.609-0.22197 0.396-0.5273 0.668-0.92704 0.818-0.39673 0.15-0.77638 0.225-1.146 0.225-0.27118 0-0.54939-0.037-0.83564-0.109-0.28524-0.071-0.55241-0.186-0.79848-0.35-0.24708-0.162-0.4369-0.373-0.56446-0.637-0.068297-0.143-0.12354-0.291-0.15869-0.436-0.03917-0.146-0.061267-0.285-0.068297-0.416-0.00804-0.125-0.011048-0.295-0.011048-0.504l-0.00904-2.453c0-0.256-0.051223-0.437-0.15066-0.541-0.10044-0.105-0.33546-0.158-0.70406-0.158v-0.396h2.984v0.396c-0.2531 0-0.44293 0.027-0.56847 0.078-0.12253 0.051-0.20389 0.121-0.24306 0.219-0.038166 0.094-0.057249 0.229-0.057249 0.402v2.453c0 0.252 0.012053 0.473 0.037162 0.662 0.023101 0.19 0.063275 0.356 0.1155 0.497 0.099433 0.236 0.26917 0.425 0.50419 0.563 0.23703 0.138 0.49917 0.212 0.78241 0.212 0.30734 0 0.59057-0.076 0.85372-0.224 0.26315-0.151 0.44594-0.344 0.54939-0.58 0.079345-0.188 0.13358-0.377 0.15869-0.578 0.021092-0.196 0.036157-0.436 0.036157-0.711v-2.121c0-0.188-0.00502-0.332-0.017074-0.424-0.014062-0.092-0.045197-0.176-0.097424-0.246-0.052227-0.069-0.1386-0.123-0.25913-0.155-0.12052-0.031-0.28725-0.048-0.50118-0.048v-0.397h2.1795v0.398zm114.93-4.947h-7.1913v-0.971c0.6197 0 1.0767-0.059 1.3649-0.184 0.28825-0.121 0.47708-0.304 0.56345-0.537 0.0904-0.233 0.13358-0.558 0.13358-0.965v-8.959l-5.4146 11.614h-0.64581l-5.4899-11.614v8.506c0 0.449 0.0171 0.793 0.0502 1.033 0.0281 0.24 0.11048 0.443 0.23804 0.611 0.13157 0.17 0.33948 0.293 0.6197 0.375 0.28223 0.078 0.67694 0.119 1.1731 0.119v0.97h-5.3021v-0.97c0.50721 0 0.89992-0.043 1.1781-0.127 0.2752-0.082 0.4811-0.209 0.60664-0.377 0.12756-0.17 0.20389-0.371 0.23101-0.607 0.0281-0.234 0.0452-0.578 0.0452-1.025v-8.096c0-0.602-0.0352-1.041-0.0974-1.305-0.0633-0.27-0.23603-0.473-0.52328-0.607-0.28624-0.137-0.76734-0.205-1.4433-0.205v-0.97h5.2388l4.7617 10.083 4.7688-10.083h5.1293v0.97c-0.87883 0-1.4493 0.127-1.7084 0.383-0.25511 0.258-0.38467 0.69-0.38467 1.306v8.978c0 0.387 0.0452 0.699 0.12956 0.938 0.0824 0.236 0.27821 0.423 0.58656 0.554 0.30633 0.129 0.76533 0.192 1.377 0.192v0.971h0.005zm-31.277 0h-6.7604v-0.971c0.56848 0 0.98328-0.041 1.2494-0.118 0.25712-0.082 0.3907-0.272 0.3907-0.574 0-0.214-0.04319-0.427-0.12756-0.646l-0.67896-1.686h-4.6533l-0.35254 0.928c-0.19686 0.52-0.29428 0.896-0.29428 1.127 0 0.422 0.16472 0.689 0.49214 0.801 0.32542 0.113 0.70808 0.168 1.144 0.168v0.971h-4.9395v-0.971c0.39572 0 0.72917-0.071 1.0064-0.219 0.27218-0.147 0.53734-0.43 0.79044-0.838 0.24708-0.414 0.51725-0.994 0.80651-1.746l4.139-10.785h1.0044l4.372 11.125c0.31638 0.783 0.54939 1.318 0.69503 1.596 0.14865 0.277 0.35454 0.492 0.61367 0.643 0.25913 0.15 0.62773 0.227 1.1028 0.227v0.968zm-6.3085-5.031-1.9806-4.974-1.8782 4.974h3.8588zm-15.601 0.775c0 0.431-0.09039 0.891-0.27821 1.373-0.1848 0.486-0.46904 0.949-0.84568 1.395-0.37463 0.44-0.8497 0.803-1.4222 1.079-0.57651 0.278-1.2364 0.418-1.9897 0.418-0.74324 0-1.4855-0.161-2.2197-0.483-0.7362-0.321-1.3599-0.807-1.8701-1.442-0.22297 0.511-0.36258 0.979-0.42384 1.412h-0.95315v-4.781h0.95315c0.17074 0.687 0.40677 1.334 0.71411 1.937 0.30232 0.604 0.73219 1.127 1.2876 1.562 0.55441 0.438 1.2394 0.655 2.0439 0.655 0.70607 0 1.2705-0.191 1.6944-0.577 0.42585-0.384 0.63978-0.868 0.63978-1.452 0-0.33-0.0683-0.617-0.19585-0.865-0.13358-0.246-0.32441-0.471-0.57149-0.664-0.24708-0.199-0.58655-0.406-1.0174-0.629-0.44-0.2257-0.93-0.4607-1.485-0.7067-0.848-0.397-1.546-0.803-2.09-1.205-0.54738-0.406-0.95918-0.802-1.2364-1.181-0.28022-0.384-0.47808-0.745-0.58053-1.089-0.10948-0.346-0.1607-0.691-0.1607-1.043 0-0.627 0.16873-1.244 0.50821-1.852 0.33747-0.609 0.83363-1.109 1.4835-1.498 0.65284-0.387 1.4061-0.582 2.2649-0.582 0.65786 0 1.2796 0.146 1.8721 0.439 0.5976 0.294 1.1098 0.696 1.5457 1.208 0.12354-0.29 0.23904-0.696 0.34149-1.223h0.97424v3.901h-0.97424c-0.69101-2.123-1.8932-3.185-3.6037-3.185-0.6197 0-1.1169 0.163-1.4935 0.489-0.37664 0.324-0.56446 0.742-0.56446 1.258 0 0.402 0.11751 0.752 0.35254 1.053 0.23201 0.295 0.54537 0.553 0.92603 0.764 0.38467 0.213 1.0044 0.521 1.8601 0.914 1.0355 0.49 1.844 0.914 2.4306 1.271 0.58254 0.357 1.0727 0.811 1.4825 1.355 0.39271 0.544 0.59459 1.204 0.59459 1.975zm-10.838 4.256h-6.7594v-0.971c0.57048 0 0.9883-0.041 1.2494-0.118 0.26214-0.082 0.3897-0.272 0.3897-0.574 0-0.214-0.04118-0.427-0.12555-0.646l-0.67795-1.686h-4.6553l-0.34751 0.928c-0.19786 0.52-0.2983 0.896-0.2983 1.127 0 0.422 0.16271 0.689 0.48913 0.801 0.32742 0.113 0.7121 0.168 1.149 0.168v0.971h-4.9415v-0.971c0.39673 0 0.73219-0.071 1.0084-0.219 0.27218-0.147 0.53533-0.43 0.78843-0.838 0.24708-0.414 0.51826-0.994 0.80852-1.746l4.135-10.785h1.0044l4.373 11.125c0.31537 0.783 0.54738 1.318 0.69402 1.596 0.14764 0.277 0.35555 0.492 0.61367 0.643 0.26114 0.15 0.62974 0.227 1.1008 0.227l0.002 0.968zm-6.3044-5.031-1.9776-4.974-1.8832 4.974h3.8608zm-7.0306 5.031h-8.3775v-0.971h0.6669c0.36559 0 0.69503-0.047 0.98931-0.141 0.29227-0.095 0.43791-0.308 0.43791-0.639 0-0.161-0.18681-0.49-0.55944-0.988l-2.3201-3.049-2.2317 2.594c-0.52227 0.59-0.78341 1.041-0.78341 1.359 0 0.262 0.08537 0.455 0.26013 0.584 0.17175 0.13 0.38267 0.21 0.62874 0.236 0.24708 0.031 0.57751 0.043 0.99332 0.043v0.97h-6.3065v-0.97c0.46-0.012 0.86677-0.079 1.2233-0.199 0.35555-0.119 0.7583-0.369 1.2002-0.754 0.44293-0.383 1.0265-0.993 1.7466-1.827l2.5491-2.981-3.4591-4.535c-0.52328-0.672-0.89992-1.133-1.1329-1.375-0.231-0.24-0.50319-0.414-0.81354-0.52-0.31035-0.107-0.74926-0.158-1.3147-0.158v-0.97h7.8311v0.97h-0.5514c-0.40175 0-0.70206 0.029-0.90394 0.088-0.19987 0.062-0.30031 0.222-0.30031 0.479 0 0.155 0.21494 0.536 0.64481 1.14l1.9997 2.571 2.2759-2.653c0.20188-0.27 0.33747-0.457 0.40175-0.564 0.06127-0.11 0.0924-0.244 0.0924-0.406 0-0.23-0.08638-0.398-0.26315-0.5s-0.50821-0.152-0.99432-0.152h-0.49415v-0.97h5.9338v0.97c-0.54336 0-1.0084 0.084-1.3931 0.26-0.38467 0.17-0.72415 0.396-1.0194 0.678-0.28926 0.283-0.71411 0.74-1.2735 1.382l-2.5601 2.929 3.4922 4.553c0.52328 0.688 0.94913 1.209 1.2866 1.562 0.33144 0.35 0.67293 0.6 1.0184 0.746 0.34651 0.148 0.80551 0.23 1.375 0.242v0.967h0.005zm-17.761-4.695-0.11751 4.695h-12.782v-0.969c0.88184 0 1.4503-0.124 1.7034-0.377 0.25511-0.254 0.38267-0.69 0.38267-1.311v-8.979c0-0.408-0.04118-0.729-0.12153-0.956-0.08135-0.228-0.27218-0.405-0.57048-0.537-0.30232-0.126-0.76533-0.194-1.3941-0.194v-0.968h11.905l0.18983 3.71h-0.97424c-0.21795-0.822-0.47005-1.412-0.7573-1.768-0.28323-0.354-0.60664-0.572-0.96118-0.654-0.35555-0.079-0.89188-0.12-1.603-0.12h-2.6867v5.054h1.4583c0.50118 0 0.87481-0.043 1.1219-0.131 0.24708-0.088 0.41983-0.255 0.51826-0.502 0.09943-0.246 0.16673-0.631 0.20188-1.156h1.0144v4.748h-0.97324c-0.034-0.5267-0.103-0.9157-0.217-1.1637-0.113-0.248-0.291-0.416-0.534-0.5-0.24306-0.086-0.61568-0.127-1.1159-0.127h-1.4804v3.359c0 0.564 0.01306 0.975 0.04018 1.234 0.02812 0.26 0.10546 0.477 0.23 0.647s0.32341 0.298 0.60262 0.373c0.27821 0.079 0.67494 0.115 1.1892 0.115h1.153c0.48812 0 0.95114-0.06 1.3931-0.183 0.43992-0.123 0.87079-0.439 1.2946-0.949 0.42384-0.51 0.72114-1.309 0.89088-2.396h0.99332v0.006zm-14-5.539h-1.0054c-0.0924-0.884-0.28725-1.537-0.58555-1.959-0.30031-0.42-0.62372-0.684-0.96922-0.779-0.34751-0.098-0.74424-0.147-1.1962-0.147h-1.8199v10.466c0 0.414 0.043188 0.736 0.12756 0.965 0.085372 0.228 0.27922 0.404 0.59158 0.533 0.30935 0.127 0.76734 0.188 1.3649 0.188v0.97h-7.1933v-0.97c0.88083 0 1.4493-0.127 1.7044-0.379 0.2531-0.252 0.37865-0.689 0.37865-1.307v-10.468h-1.5216c-0.60061 0-1.0978 0.046-1.4935 0.143-0.39371 0.094-0.74123 0.354-1.0415 0.778-0.30031 0.427-0.47205 1.082-0.51424 1.966h-1.0044v-4.055h14.177l0.001 4.055z"/></svg>
